P3
64 64 255

149 8 19 149 8 19 149 8 19 149 8 19 149 8 19 149 8 19 149 8 19 149 8 19 149 8 19 149 8 19 149 8 19 149 8 19 149 8 19 149 8 19 149 8 19 149 8 19 149 8 19 149 8 19 149 8 19 149 8 19 149 8 19 149 8 19 149 8 19 149 8 19 149 8 19 149 8 19 149 8 19 149 8 19 149 8 19 149 8 19 149 8 19 149 8 19 149 8 19 149 8 19 149 8 19 149 8 19 149 8 19 149 8 19 149 8 19 149 8 19 149 8 19 149 8 19 149 8 19 149 8 19 149 8 19 149 8 19 149 8 19 149 8 19 149 8 19 149 8 19 149 8 19 149 8 19 149 8 19 149 8 19 149 8 19 149 8 19 149 8 19 149 8 19 149 8 19 149 8 19 149 8 19 149 8 19 149 8 19 149 8 19 149 8 19 149 8 19 149 8 19 149 8 19 149 8 19 149 8 19 149 8 19 149 8 19 149 8 19 149 8 19 149 8 19 149 8 19 149 8 19 149 8 19 149 8 19 149 8 19 149 8 19 149 8 19 149 8 19 149 8 19 149 8 19 149 8 19 149 8 19 149 8 19 149 8 19 149 8 19 149 8 19 149 8 19 149 8 19 149 8 19 149 8 19 149 8 19 149 8 19 149 8 19 149 8 19 149 8 19 149 8 19 149 8 19 149 8 19 149 8 19 149 8 19 149 8 19 149 8 19 149 8 19 149 8 19 149 8 19 149 8 19 149 8 19 149 8 19 149 8 19 149 8 19 149 8 19 149 8 19 149 8 19 149 8 19 149 8 19 149 8 19 149 8 19 149 8 19 149 8 19 149 8 19 149 8 19 149 8 19 149 8 19 149 8 19 149 8 19 149 8 19 149 8 19 149 8 19 149 8 19 149 8 19 149 8 19 149 8 19 149 8 19 149 8 19 149 8 19 149 8 19 149 8 19 149 8 19 149 8 19 149 8 19 149 8 19 149 8 19 149 8 19 149 8 19 149 8 19 149 8 19 149 8 19 149 8 19 149 8 19 149 8 19 149 8 19 149 8 19 149 8 19 149 8 19 162 86 87 225 210 211 159 74 76 149 8 19 149 8 19 149 8 19 149 8 19 149 8 19 149 8 19 149 8 19 149 8 19 149 8 19 149 8 19 149 8 19 149 8 19 149 8 19 149 8 19 149 8 19 149 8 19 149 8 19 149 8 19 149 8 19 149 8 19 149 8 19 149 8 19 149 8 19 149 8 19 149 8 19 149 8 19 149 8 19 149 8 19 149 8 19 149 8 19 149 8 19 149 8 19 149 8 19 149 8 19 149 8 19 149 8 19 149 8 19 149 8 19 149 8 19 149 8 19 149 8 19 149 8 19 149 8 19 149 8 19 149 8 19 149 8 19 149 8 19 149 8 19 149 8 19 149 8 19 149 8 19 149 8 19 149 8 19 149 8 19 149 8 19 149 8 19 149 8 19 149 8 19 149 8 19 149 8 19 193 157 157 249 246 246 255 255 255 211 189 189 149 8 19 149 8 19 149 8 19 149 8 19 149 8 19 149 8 19 149 8 19 149 8 19 149 8 19 149 8 19 149 8 19 149 8 19 149 8 19 149 8 19 149 8 19 149 8 19 149 8 19 149 8 19 149 8 19 149 8 19 149 8 19 149 8 19 149 8 19 149 8 19 149 8 19 149 8 19 149 8 19 149 8 19 149 8 19 149 8 19 149 8 19 149 8 19 149 8 19 149 8 19 149 8 19 149 8 19 149 8 19 149 8 19 149 8 19 149 8 19 149 8 19 149 8 19 149 8 19 149 8 19 149 8 19 149 8 19 149 8 19 149 8 19 149 8 19 149 8 19 149 8 19 149 8 19 149 8 19 149 8 19 149 8 19 149 8 19 149 8 19 149 8 19 159 74 76 225 210 211 255 255 255 255 255 255 255 255 255 250 248 248 159 72 74 149 8 19 149 8 19 149 8 19 149 8 19 149 8 19 149 8 19 149 8 19 149 8 19 149 8 19 149 8 19 149 8 19 149 8 19 149 8 19 149 8 19 149 8 19 149 8 19 149 8 19 149 8 19 149 8 19 149 8 19 149 8 19 149 8 19 149 8 19 149 8 19 149 8 19 149 8 19 149 8 19 149 8 19 149 8 19 149 8 19 149 8 19 149 8 19 149 8 19 149 8 19 149 8 19 149 8 19 149 8 19 149 8 19 149 8 19 149 8 19 149 8 19 149 8 19 149 8 19 149 8 19 149 8 19 149 8 19 149 8 19 149 8 19 149 8 19 149 8 19 149 8 19 149 8 19 149 8 19 149 8 19 149 8 19 149 8 19 187 145 146 247 243 243 255 255 255 255 255 255 255 255 255 255 255 255 255 255 255 211 187 188 149 8 19 149 8 19 149 8 19 149 8 19 149 8 19 149 8 19 149 8 19 149 8 19 149 8 19 149 8 19 149 8 19 149 8 19 149 8 19 149 8 19 149 8 19 149 8 19 149 8 19 149 8 19 149 8 19 149 8 19 149 8 19 149 8 19 149 8 19 149 8 19 149 8 19 149 8 19 149 8 19 149 8 19 149 8 19 149 8 19 149 8 19 149 8 19 149 8 19 149 8 19 149 8 19 149 8 19 149 8 19 149 8 19 149 8 19 149 8 19 149 8 19 149 8 19 149 8 19 149 8 19 149 8 19 149 8 19 149 8 19 149 8 19 149 8 19 149 8 19 149 8 19 149 8 19 149 8 19 149 8 19 156 60 63 221 204 204 255 255 255 255 255 255 255 255 255 255 255 255 255 255 255 255 255 255 255 255 255 250 247 247 158 70 72 149 8 19 149 8 19 149 8 19 149 8 19 149 8 19 149 8 19 149 8 19 149 8 19 149 8 19 149 8 19 149 8 19 149 8 19 149 8 19 149 8 19 149 8 19 149 8 19 149 8 19 149 8 19 149 8 19 149 8 19 149 8 19 149 8 19 149 8 19 149 8 19 149 8 19 149 8 19 149 8 19 149 8 19 149 8 19 149 8 19 149 8 19 149 8 19 149 8 19 149 8 19 149 8 19 149 8 19 149 8 19 149 8 19 149 8 19 149 8 19 149 8 19 149 8 19 149 8 19 149 8 19 149 8 19 149 8 19 149 8 19 149 8 19 149 8 19 149 8 19 149 8 19 149 8 19 182 134 134 244 239 239 255 255 255 255 255 255 255 255 255 255 255 255 255 255 255 255 255 255 255 255 255 255 255 255 255 255 255 209 185 185 149 8 19 149 8 19 149 8 19 149 8 19 149 8 19 149 8 19 149 8 19 149 8 19 149 8 19 149 8 19 149 8 19 149 8 19 149 8 19 149 8 19 149 8 19 149 8 19 149 8 19 149 8 19 149 8 19 149 8 19 149 8 19 149 8 19 149 8 19 149 8 19 149 8 19 149 8 19 149 8 19 149 8 19 149 8 19 149 8 19 149 8 19 149 8 19 149 8 19 149 8 19 149 8 19 149 8 19 149 8 19 149 8 19 149 8 19 149 8 19 149 8 19 149 8 19 149 8 19 149 8 19 149 8 19 149 8 19 149 8 19 149 8 19 149 8 19 149 8 19 149 8 19 161 82 84 254 254 254 255 255 255 255 255 255 255 255 255 255 255 255 255 255 255 255 255 255 255 255 255 255 255 255 255 255 255 255 255 255 249 247 247 157 65 68 149 8 19 149 8 19 149 8 19 149 8 19 149 8 19 149 8 19 149 8 19 149 8 19 149 8 19 149 8 19 149 8 19 149 8 19 149 8 19 149 8 19 149 8 19 149 8 19 149 8 19 149 8 19 149 8 19 149 8 19 149 8 19 149 8 19 149 8 19 149 8 19 149 8 19 149 8 19 149 8 19 149 8 19 149 8 19 149 8 19 149 8 19 149 8 19 149 8 19 149 8 19 149 8 19 149 8 19 149 8 19 149 8 19 149 8 19 149 8 19 149 8 19 149 8 19 149 8 19 149 8 19 149 8 19 149 8 19 149 8 19 149 8 19 149 8 19 149 8 19 180 131 131 255 255 255 255 255 255 255 255 255 255 255 255 255 255 255 255 255 255 255 255 255 255 255 255 255 255 255 255 255 255 255 255 255 255 255 255 208 183 183 149 8 19 149 8 19 149 8 19 149 8 19 149 8 19 149 8 19 149 8 19 149 8 19 149 8 19 149 8 19 149 8 19 149 8 19 149 8 19 149 8 19 149 8 19 149 8 19 149 8 19 149 8 19 149 8 19 149 8 19 149 8 19 149 8 19 149 8 19 149 8 19 149 8 19 149 8 19 149 8 19 149 8 19 149 8 19 149 8 19 149 8 19 149 8 19 149 8 19 149 8 19 149 8 19 149 8 19 149 8 19 149 8 19 149 8 19 149 8 19 149 8 19 149 8 19 149 8 19 149 8 19 149 8 19 149 8 19 149 8 19 149 8 19 149 8 19 149 8 19 196 162 163 255 255 255 255 255 255 255 255 255 255 255 255 255 255 255 255 255 255 255 255 255 255 255 255 255 255 255 255 255 255 255 255 255 255 255 255 249 246 246 156 63 65 149 8 19 149 8 19 149 8 19 149 8 19 149 8 19 149 8 19 149 8 19 149 8 19 149 8 19 149 8 19 149 8 19 149 8 19 149 8 19 149 8 19 149 8 19 149 8 19 149 8 19 149 8 19 149 8 19 149 8 19 149 8 19 149 8 19 149 8 19 149 8 19 149 8 19 149 8 19 149 8 19 149 8 19 149 8 19 149 8 19 149 8 19 149 8 19 149 8 19 149 8 19 149 8 19 149 8 19 149 8 19 149 8 19 149 8 19 149 8 19 149 8 19 149 8 19 149 8 19 149 8 19 149 8 19 149 8 19 149 8 19 149 8 19 149 8 19 211 188 188 255 255 255 255 255 255 255 255 255 255 255 255 255 255 255 255 255 255 255 255 255 255 255 255 255 255 255 255 255 255 255 255 255 255 255 255 255 255 255 207 182 182 149 8 19 149 8 19 149 8 19 149 8 19 149 8 19 149 8 19 149 8 19 149 8 19 149 8 19 149 8 19 149 8 19 149 8 19 149 8 19 149 8 19 149 8 19 149 8 19 149 8 19 149 8 19 149 8 19 149 8 19 149 8 19 149 8 19 149 8 19 149 8 19 149 8 19 149 8 19 149 8 19 149 8 19 149 8 19 149 8 19 149 8 19 149 8 19 149 8 19 149 8 19 149 8 19 149 8 19 149 8 19 149 8 19 149 8 19 149 8 19 149 8 19 149 8 19 149 8 19 149 8 19 149 8 19 149 8 19 149 8 19 149 8 19 149 8 19 225 210 210 255 255 255 255 255 255 255 255 255 255 255 255 255 255 255 255 255 255 255 255 255 255 255 255 255 255 255 255 255 255 255 255 255 255 255 255 255 255 255 248 245 245 156 60 63 149 8 19 149 8 19 149 8 19 149 8 19 149 8 19 149 8 19 149 8 19 149 8 19 149 8 19 149 8 19 149 8 19 149 8 19 149 8 19 149 8 19 149 8 19 149 8 19 149 8 19 149 8 19 149 8 19 149 8 19 149 8 19 149 8 19 149 8 19 149 8 19 149 8 19 149 8 19 149 8 19 149 8 19 149 8 19 149 8 19 149 8 19 149 8 19 149 8 19 149 8 19 149 8 19 149 8 19 149 8 19 149 8 19 149 8 19 149 8 19 149 8 19 149 8 19 149 8 19 149 8 19 149 8 19 149 8 19 149 8 19 149 8 19 236 227 227 255 255 255 255 255 255 255 255 255 255 255 255 255 255 255 255 255 255 255 255 255 255 255 255 255 255 255 255 255 255 255 255 255 255 255 255 255 255 255 255 255 255 206 179 180 149 8 19 149 8 19 149 8 19 149 8 19 149 8 19 149 8 19 149 8 19 149 8 19 149 8 19 149 8 19 149 8 19 149 8 19 149 8 19 149 8 19 149 8 19 149 8 19 149 8 19 149 8 19 149 8 19 149 8 19 149 8 19 149 8 19 149 8 19 149 8 19 149 8 19 149 8 19 149 8 19 149 8 19 149 8 19 149 8 19 149 8 19 149 8 19 149 8 19 149 8 19 149 8 19 149 8 19 149 8 19 149 8 19 149 8 19 149 8 19 149 8 19 149 8 19 149 8 19 149 8 19 149 8 19 149 8 19 149 8 19 149 8 19 184 140 140 253 252 252 255 255 255 255 255 255 255 255 255 255 255 255 255 255 255 255 255 255 255 255 255 255 255 255 255 255 255 255 255 255 255 255 255 255 255 255 255 255 255 248 245 245 154 55 57 149 8 19 149 8 19 149 8 19 149 8 19 149 8 19 149 8 19 149 8 19 149 8 19 149 8 19 149 8 19 149 8 19 149 8 19 149 8 19 149 8 19 149 8 19 149 8 19 149 8 19 149 8 19 149 8 19 149 8 19 149 8 19 149 8 19 149 8 19 149 8 19 149 8 19 149 8 19 149 8 19 149 8 19 149 8 19 149 8 19 149 8 19 149 8 19 149 8 19 149 8 19 149 8 19 149 8 19 149 8 19 149 8 19 149 8 19 149 8 19 149 8 19 149 8 19 149 8 19 149 8 19 149 8 19 149 8 19 149 8 19 149 8 19 200 168 169 255 255 255 255 255 255 255 255 255 255 255 255 255 255 255 255 255 255 255 255 255 255 255 255 255 255 255 255 255 255 255 255 255 255 255 255 255 255 255 255 255 255 205 178 178 149 8 19 149 8 19 149 8 19 149 8 19 149 8 19 149 8 19 149 8 19 149 8 19 149 8 19 149 8 19 149 8 19 149 8 19 149 8 19 149 8 19 149 8 19 149 8 19 149 8 19 149 8 19 149 8 19 149 8 19 149 8 19 149 8 19 149 8 19 149 8 19 149 8 19 149 8 19 149 8 19 149 8 19 149 8 19 149 8 19 149 8 19 149 8 19 149 8 19 149 8 19 149 8 19 149 8 19 149 8 19 149 8 19 149 8 19 149 8 19 149 8 19 149 8 19 149 8 19 149 8 19 149 8 19 149 8 19 149 8 19 149 8 19 149 8 19 214 193 193 255 255 255 255 255 255 255 255 255 255 255 255 255 255 255 255 255 255 255 255 255 255 255 255 255 255 255 255 255 255 255 255 255 255 255 255 255 255 255 247 244 244 154 55 57 149 8 19 149 8 19 149 8 19 149 8 19 149 8 19 149 8 19 149 8 19 149 8 19 149 8 19 149 8 19 149 8 19 149 8 19 149 8 19 149 8 19 149 8 19 149 8 19 149 8 19 149 8 19 149 8 19 149 8 19 149 8 19 149 8 19 149 8 19 149 8 19 149 8 19 149 8 19 149 8 19 149 8 19 149 8 19 149 8 19 149 8 19 149 8 19 149 8 19 149 8 19 149 8 19 149 8 19 149 8 19 149 8 19 149 8 19 149 8 19 149 8 19 149 8 19 149 8 19 149 8 19 149 8 19 149 8 19 149 8 19 149 8 19 167 99 100 248 246 246 255 255 255 255 255 255 255 255 255 255 255 255 255 255 255 255 255 255 255 255 255 255 255 255 255 255 255 255 255 255 255 255 255 255 255 255 255 255 255 204 176 176 149 8 19 149 8 19 149 8 19 149 8 19 149 8 19 149 8 19 149 8 19 149 8 19 149 8 19 149 8 19 149 8 19 149 8 19 149 8 19 149 8 19 149 8 19 149 8 19 149 8 19 149 8 19 149 8 19 149 8 19 149 8 19 149 8 19 149 8 19 149 8 19 149 8 19 149 8 19 149 8 19 149 8 19 149 8 19 149 8 19 149 8 19 149 8 19 149 8 19 149 8 19 149 8 19 149 8 19 149 8 19 149 8 19 149 8 19 149 8 19 149 8 19 149 8 19 149 8 19 149 8 19 149 8 19 149 8 19 157 65 68 213 191 191 252 251 251 255 255 255 255 255 255 255 255 255 255 255 255 255 255 255 255 255 255 255 255 255 255 255 255 255 255 255 255 255 255 255 255 255 255 255 255 255 255 255 255 255 255 247 243 243 154 52 55 149 8 19 149 8 19 149 8 19 149 8 19 149 8 19 149 8 19 149 8 19 149 8 19 149 8 19 149 8 19 149 8 19 149 8 19 149 8 19 149 8 19 149 8 19 149 8 19 149 8 19 149 8 19 149 8 19 149 8 19 149 8 19 149 8 19 149 8 19 149 8 19 149 8 19 149 8 19 149 8 19 149 8 19 149 8 19 149 8 19 149 8 19 149 8 19 149 8 19 149 8 19 149 8 19 149 8 19 149 8 19 149 8 19 149 8 19 149 8 19 149 8 19 149 8 19 149 8 19 151 37 41 202 173 173 249 246 246 255 255 255 255 255 255 255 255 255 255 255 255 255 255 255 255 255 255 255 255 255 255 255 255 255 255 255 255 255 255 255 255 255 255 255 255 255 255 255 255 255 255 255 255 255 255 255 255 255 255 255 236 227 227 185 141 141 149 8 19 149 8 19 149 8 19 149 8 19 149 8 19 149 8 19 149 8 19 149 8 19 149 8 19 149 8 19 149 8 19 149 8 19 149 8 19 149 8 19 149 8 19 149 8 19 149 8 19 149 8 19 149 8 19 149 8 19 149 8 19 149 8 19 149 8 19 149 8 19 149 8 19 149 8 19 149 8 19 149 8 19 149 8 19 149 8 19 149 8 19 149 8 19 149 8 19 149 8 19 149 8 19 149 8 19 149 8 19 149 8 19 149 8 19 149 8 19 149 8 19 187 145 146 242 236 236 255 255 255 255 255 255 255 255 255 255 255 255 255 255 255 255 255 255 255 255 255 255 255 255 255 255 255 255 255 255 255 255 255 255 255 255 255 255 255 255 255 255 255 255 255 255 255 255 255 255 255 255 255 255 255 255 255 255 255 255 219 202 202 149 8 19 149 8 19 149 8 19 149 8 19 149 8 19 149 8 19 149 8 19 149 8 19 149 8 19 149 8 19 149 8 19 149 8 19 149 8 19 149 8 19 149 8 19 149 8 19 149 8 19 149 8 19 149 8 19 149 8 19 149 8 19 149 8 19 149 8 19 149 8 19 149 8 19 149 8 19 149 8 19 149 8 19 149 8 19 149 8 19 149 8 19 149 8 19 149 8 19 149 8 19 149 8 19 149 8 19 149 8 19 149 8 19 149 8 19 173 114 115 231 220 221 255 255 255 255 255 255 255 255 255 255 255 255 255 255 255 255 255 255 255 255 255 255 255 255 255 255 255 255 255 255 255 255 255 255 255 255 255 255 255 255 255 255 255 255 255 255 255 255 255 255 255 255 255 255 255 255 255 255 255 255 255 255 255 255 255 255 245 240 240 149 8 19 149 8 19 149 8 19 149 8 19 149 8 19 149 8 19 149 8 19 149 8 19 149 8 19 149 8 19 149 8 19 149 8 19 149 8 19 149 8 19 149 8 19 149 8 19 149 8 19 149 8 19 149 8 19 149 8 19 149 8 19 149 8 19 149 8 19 149 8 19 149 8 19 149 8 19 149 8 19 149 8 19 149 8 19 149 8 19 149 8 19 149 8 19 149 8 19 149 8 19 149 8 19 149 8 19 149 8 19 161 80 82 219 201 201 254 253 253 255 255 255 255 255 255 255 255 255 255 255 255 255 255 255 255 255 255 255 255 255 255 255 255 255 255 255 255 255 255 255 255 255 255 255 255 255 255 255 255 255 255 255 255 255 255 255 255 255 255 255 255 255 255 255 255 255 255 255 255 255 255 255 255 255 255 255 255 255 255 255 255 157 68 70 149 8 19 149 8 19 149 8 19 149 8 19 149 8 19 149 8 19 149 8 19 149 8 19 149 8 19 149 8 19 149 8 19 149 8 19 149 8 19 149 8 19 149 8 19 149 8 19 149 8 19 149 8 19 149 8 19 149 8 19 149 8 19 149 8 19 149 8 19 149 8 19 149 8 19 149 8 19 149 8 19 149 8 19 149 8 19 149 8 19 149 8 19 149 8 19 149 8 19 149 8 19 153 45 48 206 179 180 250 248 248 255 255 255 255 255 255 255 255 255 255 255 255 255 255 255 255 255 255 255 255 255 255 255 255 255 255 255 255 255 255 255 255 255 255 255 255 255 255 255 255 255 255 255 255 255 255 255 255 255 255 255 255 255 255 255 255 255 255 255 255 255 255 255 255 255 255 255 255 255 255 255 255 255 255 255 255 255 255 176 122 123 149 8 19 149 8 19 149 8 19 149 8 19 149 8 19 149 8 19 149 8 19 149 8 19 149 8 19 149 8 19 149 8 19 149 8 19 149 8 19 149 8 19 149 8 19 149 8 19 149 8 19 149 8 19 149 8 19 149 8 19 149 8 19 149 8 19 149 8 19 149 8 19 149 8 19 149 8 19 149 8 19 149 8 19 149 8 19 149 8 19 149 8 19 149 8 19 149 8 19 149 8 19 237 229 229 255 255 255 255 255 255 255 255 255 255 255 255 255 255 255 255 255 255 255 255 255 255 255 255 255 255 255 255 255 255 255 255 255 255 255 255 255 255 255 255 255 255 255 255 255 255 255 255 255 255 255 255 255 255 255 255 255 255 255 255 255 255 255 255 255 255 255 255 255 255 255 255 255 255 255 255 255 255 255 255 255 255 255 255 194 158 159 149 8 19 149 8 19 149 8 19 149 8 19 149 8 19 149 8 19 149 8 19 149 8 19 149 8 19 149 8 19 149 8 19 149 8 19 149 8 19 149 8 19 149 8 19 149 8 19 149 8 19 149 8 19 149 8 19 149 8 19 149 8 19 149 8 19 149 8 19 149 8 19 149 8 19 149 8 19 149 8 19 149 8 19 149 8 19 149 8 19 149 8 19 149 8 19 149 8 19 166 97 98 255 255 255 255 255 255 255 255 255 255 255 255 255 255 255 255 255 255 255 255 255 255 255 255 255 255 255 255 255 255 255 255 255 255 255 255 255 255 255 255 255 255 255 255 255 255 255 255 255 255 255 255 255 255 255 255 255 255 255 255 255 255 255 255 255 255 255 255 255 255 255 255 255 255 255 255 255 255 255 255 255 255 255 255 255 255 255 208 183 184 149 8 19 149 8 19 149 8 19 149 8 19 149 8 19 149 8 19 149 8 19 149 8 19 149 8 19 149 8 19 149 8 19 149 8 19 149 8 19 149 8 19 149 8 19 149 8 19 149 8 19 149 8 19 149 8 19 149 8 19 149 8 19 149 8 19 149 8 19 149 8 19 149 8 19 149 8 19 149 8 19 149 8 19 149 8 19 149 8 19 149 8 19 149 8 19 149 8 19 200 169 170 255 255 255 255 255 255 255 255 255 255 255 255 255 255 255 255 255 255 255 255 255 255 255 255 255 255 255 255 255 255 255 255 255 255 255 255 255 255 255 255 255 255 255 255 255 255 255 255 255 255 255 249 246 246 214 193 193 222 206 207 255 255 255 255 255 255 255 255 255 255 255 255 255 255 255 255 255 255 255 255 255 255 255 255 255 255 255 223 207 207 149 8 19 149 8 19 149 8 19 149 8 19 149 8 19 149 8 19 149 8 19 149 8 19 149 8 19 149 8 19 149 8 19 149 8 19 149 8 19 149 8 19 149 8 19 149 8 19 149 8 19 149 8 19 149 8 19 149 8 19 149 8 19 149 8 19 149 8 19 149 8 19 149 8 19 149 8 19 149 8 19 149 8 19 149 8 19 149 8 19 149 8 19 149 8 19 149 8 19 227 214 214 255 255 255 255 255 255 255 255 255 255 255 255 255 255 255 255 255 255 255 255 255 255 255 255 255 255 255 255 255 255 255 255 255 255 255 255 255 255 255 255 255 255 255 255 255 239 232 232 198 166 167 154 52 55 149 8 19 150 19 26 219 202 202 255 255 255 255 255 255 255 255 255 255 255 255 255 255 255 255 255 255 255 255 255 255 255 255 235 226 226 149 8 19 149 8 19 149 8 19 149 8 19 149 8 19 149 8 19 149 8 19 149 8 19 149 8 19 149 8 19 149 8 19 149 8 19 149 8 19 149 8 19 149 8 19 149 8 19 149 8 19 149 8 19 149 8 19 149 8 19 149 8 19 149 8 19 149 8 19 149 8 19 149 8 19 149 8 19 149 8 19 149 8 19 149 8 19 149 8 19 149 8 19 149 8 19 149 8 19 241 234 234 255 255 255 255 255 255 255 255 255 255 255 255 255 255 255 255 255 255 255 255 255 255 255 255 255 255 255 255 255 255 255 255 255 255 255 255 255 255 255 229 217 217 181 132 132 149 8 19 149 8 19 149 8 19 149 8 19 149 8 19 150 19 26 218 199 200 255 255 255 255 255 255 255 255 255 255 255 255 255 255 255 255 255 255 255 255 255 247 244 244 149 8 19 149 8 19 149 8 19 149 8 19 149 8 19 149 8 19 149 8 19 149 8 19 149 8 19 149 8 19 149 8 19 149 8 19 149 8 19 149 8 19 149 8 19 149 8 19 149 8 19 149 8 19 149 8 19 149 8 19 149 8 19 149 8 19 149 8 19 149 8 19 149 8 19 149 8 19 149 8 19 149 8 19 149 8 19 149 8 19 149 8 19 149 8 19 149 8 19 163 87 89 236 228 228 255 255 255 255 255 255 255 255 255 255 255 255 255 255 255 255 255 255 255 255 255 255 255 255 255 255 255 255 255 255 255 255 255 255 255 255 174 117 118 149 8 19 149 8 19 149 8 19 149 8 19 149 8 19 149 8 19 149 8 19 150 19 26 222 206 206 255 255 255 255 255 255 255 255 255 255 255 255 255 255 255 255 255 255 255 255 255 156 63 65 149 8 19 149 8 19 149 8 19 149 8 19 149 8 19 149 8 19 149 8 19 149 8 19 149 8 19 149 8 19 149 8 19 149 8 19 149 8 19 149 8 19 149 8 19 149 8 19 149 8 19 149 8 19 149 8 19 149 8 19 149 8 19 149 8 19 149 8 19 149 8 19 149 8 19 149 8 19 149 8 19 149 8 19 149 8 19 149 8 19 149 8 19 149 8 19 149 8 19 153 48 52 222 206 207 255 255 255 255 255 255 255 255 255 255 255 255 255 255 255 255 255 255 255 255 255 255 255 255 255 255 255 255 255 255 255 255 255 171 108 110 149 8 19 149 8 19 149 8 19 149 8 19 149 8 19 149 8 19 149 8 19 149 8 19 199 167 167 255 255 255 255 255 255 255 255 255 255 255 255 255 255 255 255 255 255 255 255 255 175 120 121 149 8 19 149 8 19 149 8 19 149 8 19 149 8 19 149 8 19 149 8 19 149 8 19 149 8 19 149 8 19 149 8 19 149 8 19 149 8 19 149 8 19 149 8 19 149 8 19 149 8 19 149 8 19 149 8 19 149 8 19 149 8 19 149 8 19 149 8 19 149 8 19 149 8 19 149 8 19 149 8 19 149 8 19 149 8 19 149 8 19 149 8 19 149 8 19 149 8 19 149 8 19 163 87 89 255 255 255 255 255 255 255 255 255 255 255 255 255 255 255 255 255 255 255 255 255 255 255 255 255 255 255 255 255 255 255 255 255 166 97 98 149 8 19 149 8 19 149 8 19 149 8 19 149 8 19 149 8 19 149 8 19 149 8 19 192 154 155 255 255 255 255 255 255 255 255 255 255 255 255 255 255 255 255 255 255 255 255 255 193 156 156 149 8 19 149 8 19 149 8 19 149 8 19 149 8 19 149 8 19 149 8 19 149 8 19 149 8 19 149 8 19 149 8 19 149 8 19 149 8 19 149 8 19 149 8 19 149 8 19 149 8 19 149 8 19 149 8 19 149 8 19 149 8 19 149 8 19 149 8 19 149 8 19 149 8 19 149 8 19 149 8 19 149 8 19 149 8 19 149 8 19 149 8 19 149 8 19 149 8 19 149 8 19 196 162 163 255 255 255 255 255 255 255 255 255 255 255 255 255 255 255 255 255 255 255 255 255 255 255 255 255 255 255 255 255 255 255 255 255 159 74 76 149 8 19 149 8 19 149 8 19 149 8 19 149 8 19 149 8 19 149 8 19 149 8 19 184 139 139 255 255 255 255 255 255 255 255 255 255 255 255 255 255 255 255 255 255 255 255 255 207 182 182 149 8 19 149 8 19 149 8 19 149 8 19 149 8 19 149 8 19 149 8 19 151 32 37 159 72 74 149 8 19 149 8 19 149 8 19 149 8 19 149 8 19 149 8 19 149 8 19 149 8 19 149 8 19 149 8 19 149 8 19 149 8 19 149 8 19 149 8 19 149 8 19 149 8 19 149 8 19 149 8 19 149 8 19 149 8 19 149 8 19 149 8 19 149 8 19 149 8 19 149 8 19 224 209 210 255 255 255 255 255 255 255 255 255 255 255 255 255 255 255 255 255 255 255 255 255 255 255 255 255 255 255 255 255 255 255 255 255 156 60 63 149 8 19 149 8 19 149 8 19 149 8 19 149 8 19 149 8 19 149 8 19 149 8 19 176 122 123 255 255 255 255 255 255 255 255 255 255 255 255 255 255 255 255 255 255 255 255 255 221 205 205 149 8 19 149 8 19 161 82 84 185 141 141 205 178 178 222 206 207 239 231 231 253 251 251 234 224 224 149 8 19 149 8 19 149 8 19 149 8 19 149 8 19 149 8 19 149 8 19 149 8 19 149 8 19 149 8 19 149 8 19 149 8 19 149 8 19 149 8 19 149 8 19 149 8 19 149 8 19 149 8 19 149 8 19 149 8 19 149 8 19 149 8 19 149 8 19 149 8 19 150 19 26 247 244 244 255 255 255 255 255 255 255 255 255 255 255 255 255 255 255 255 255 255 255 255 255 255 255 255 255 255 255 255 255 255 255 255 255 149 8 19 149 8 19 149 8 19 149 8 19 149 8 19 149 8 19 149 8 19 149 8 19 149 8 19 168 102 103 255 255 255 255 255 255 255 255 255 255 255 255 255 255 255 255 255 255 255 255 255 246 241 241 232 222 222 247 244 244 255 255 255 255 255 255 255 255 255 255 255 255 255 255 255 255 255 255 254 254 254 162 84 86 149 8 19 149 8 19 149 8 19 149 8 19 149 8 19 149 8 19 149 8 19 149 8 19 149 8 19 149 8 19 149 8 19 149 8 19 149 8 19 149 8 19 149 8 19 149 8 19 149 8 19 149 8 19 149 8 19 149 8 19 149 8 19 149 8 19 149 8 19 175 118 119 255 255 255 255 255 255 255 255 255 255 255 255 255 255 255 255 255 255 255 255 255 255 255 255 255 255 255 255 255 255 255 255 255 255 255 255 218 199 199 161 80 82 149 8 19 149 8 19 149 8 19 149 8 19 149 8 19 149 8 19 149 8 19 159 74 76 255 255 255 255 255 255 255 255 255 255 255 255 255 255 255 255 255 255 255 255 255 255 255 255 255 255 255 255 255 255 255 255 255 255 255 255 255 255 255 255 255 255 255 255 255 255 255 255 255 255 255 200 170 170 149 8 19 149 8 19 149 8 19 149 8 19 149 8 19 149 8 19 149 8 19 149 8 19 149 8 19 149 8 19 149 8 19 149 8 19 149 8 19 149 8 19 149 8 19 149 8 19 149 8 19 149 8 19 149 8 19 149 8 19 149 8 19 149 8 19 149 8 19 207 181 181 255 255 255 255 255 255 255 255 255 255 255 255 255 255 255 255 255 255 255 255 255 255 255 255 255 255 255 255 255 255 255 255 255 255 255 255 255 255 255 251 250 250 210 187 187 156 63 65 149 8 19 153 48 52 180 130 130 204 176 176 225 210 210 243 238 238 255 255 255 255 255 255 255 255 255 255 255 255 255 255 255 255 255 255 255 255 255 255 255 255 255 255 255 255 255 255 255 255 255 255 255 255 255 255 255 255 255 255 255 255 255 255 255 255 255 255 255 232 221 222 149 8 19 149 8 19 149 8 19 149 8 19 149 8 19 149 8 19 149 8 19 149 8 19 149 8 19 149 8 19 149 8 19 149 8 19 149 8 19 149 8 19 149 8 19 149 8 19 149 8 19 149 8 19 149 8 19 149 8 19 149 8 19 149 8 19 149 8 19 232 222 222 255 255 255 255 255 255 255 255 255 255 255 255 255 255 255 255 255 255 255 255 255 255 255 255 255 255 255 255 255 255 255 255 255 255 255 255 255 255 255 255 255 255 255 255 255 248 245 245 238 230 230 253 252 252 255 255 255 255 255 255 255 255 255 255 255 255 255 255 255 255 255 255 255 255 255 255 255 255 255 255 255 255 255 255 255 255 255 255 255 255 255 255 255 255 255 255 255 255 255 255 255 255 255 255 255 255 255 255 255 255 255 255 255 255 255 255 255 253 253 253 160 76 78 149 8 19 149 8 19 149 8 19 149 8 19 149 8 19 149 8 19 149 8 19 149 8 19 149 8 19 149 8 19 149 8 19 149 8 19 149 8 19 149 8 19 149 8 19 149 8 19 149 8 19 149 8 19 149 8 19 149 8 19 149 8 19 154 55 57 252 251 251 255 255 255 255 255 255 255 255 255 255 255 255 255 255 255 255 255 255 255 255 255 255 255 255 255 255 255 255 255 255 255 255 255 255 255 255 255 255 255 255 255 255 255 255 255 255 255 255 255 255 255 255 255 255 255 255 255 255 255 255 255 255 255 255 255 255 255 255 255 255 255 255 255 255 255 255 255 255 255 255 255 255 255 255 255 255 255 255 255 255 255 255 255 255 255 255 255 255 255 255 255 255 255 255 255 255 255 255 255 255 255 255 255 255 255 255 255 255 255 255 198 166 167 149 8 19 149 8 19 149 8 19 149 8 19 149 8 19 149 8 19 149 8 19 149 8 19 149 8 19 149 8 19 149 8 19 149 8 19 149 8 19 149 8 19 149 8 19 149 8 19 149 8 19 149 8 19 149 8 19 149 8 19 149 8 19 187 144 145 255 255 255 255 255 255 255 255 255 255 255 255 255 255 255 255 255 255 255 255 255 255 255 255 255 255 255 255 255 255 255 255 255 255 255 255 255 255 255 255 255 255 255 255 255 255 255 255 255 255 255 255 255 255 255 255 255 255 255 255 255 255 255 255 255 255 255 255 255 255 255 255 255 255 255 255 255 255 255 255 255 255 255 255 255 255 255 255 255 255 255 255 255 255 255 255 255 255 255 255 255 255 255 255 255 255 255 255 255 255 255 255 255 255 255 255 255 255 255 255 255 255 255 230 219 219 149 8 19 149 8 19 149 8 19 149 8 19 149 8 19 149 8 19 149 8 19 149 8 19 149 8 19 149 8 19 149 8 19 149 8 19 149 8 19 149 8 19 149 8 19 149 8 19 149 8 19 149 8 19 149 8 19 149 8 19 149 8 19 216 196 196 255 255 255 255 255 255 255 255 255 255 255 255 255 255 255 255 255 255 255 255 255 255 255 255 255 255 255 255 255 255 255 255 255 255 255 255 255 255 255 255 255 255 255 255 255 255 255 255 255 255 255 255 255 255 255 255 255 255 255 255 255 255 255 255 255 255 255 255 255 255 255 255 255 255 255 255 255 255 255 255 255 255 255 255 255 255 255 255 255 255 255 255 255 255 255 255 255 255 255 255 255 255 255 255 255 255 255 255 255 255 255 255 255 255 255 255 255 255 255 255 255 255 255 253 252 252 158 70 72 149 8 19 149 8 19 149 8 19 149 8 19 149 8 19 149 8 19 149 8 19 149 8 19 149 8 19 149 8 19 149 8 19 149 8 19 149 8 19 149 8 19 149 8 19 149 8 19 149 8 19 149 8 19 149 8 19 149 8 19 241 234 234 255 255 255 255 255 255 255 255 255 255 255 255 255 255 255 255 255 255 255 255 255 255 255 255 255 255 255 255 255 255 255 255 255 255 255 255 255 255 255 255 255 255 255 255 255 255 255 255 255 255 255 255 255 255 255 255 255 255 255 255 255 255 255 255 255 255 255 255 255 255 255 255 255 255 255 255 255 255 255 255 255 255 255 255 255 255 255 255 255 255 255 255 255 255 255 255 255 255 255 255 255 255 255 255 255 255 255 255 255 255 255 255 255 255 255 255 255 255 255 255 255 255 255 255 255 255 198 165 166 149 8 19 149 8 19 149 8 19 149 8 19 149 8 19 149 8 19 149 8 19 149 8 19 149 8 19 149 8 19 149 8 19 149 8 19 149 8 19 149 8 19 149 8 19 149 8 19 149 8 19 149 8 19 149 8 19 164 89 91 255 255 255 255 255 255 255 255 255 255 255 255 255 255 255 255 255 255 255 255 255 255 255 255 255 255 255 255 255 255 255 255 255 255 255 255 255 255 255 255 255 255 255 255 255 255 255 255 255 255 255 255 255 255 255 255 255 255 255 255 255 255 255 255 255 255 255 255 255 255 255 255 255 255 255 255 255 255 255 255 255 255 255 255 255 255 255 255 255 255 255 255 255 255 255 255 255 255 255 255 255 255 255 255 255 255 255 255 255 255 255 255 255 255 255 255 255 255 255 255 255 255 255 255 255 255 255 255 255 221 204 204 149 8 19 149 8 19 149 8 19 149 8 19 149 8 19 149 8 19 149 8 19 149 8 19 149 8 19 149 8 19 149 8 19 149 8 19 149 8 19 149 8 19 149 8 19 149 8 19 149 8 19 149 8 19 149 8 19 197 164 164 255 255 255 255 255 255 255 255 255 255 255 255 255 255 255 255 255 255 255 255 255 255 255 255 255 255 255 255 255 255 255 255 255 255 255 255 255 255 255 255 255 255 255 255 255 255 255 255 255 255 255 255 255 255 255 255 255 255 255 255 255 255 255 255 255 255 255 255 255 255 255 255 255 255 255 255 255 255 255 255 255 255 255 255 255 255 255 255 255 255 255 255 255 255 255 255 255 255 255 255 255 255 252 251 251 246 242 242 238 231 231 231 220 220 224 209 209 216 197 197 209 184 184 199 168 168 190 151 152 174 116 117 149 8 19 149 8 19 149 8 19 149 8 19 149 8 19 149 8 19 149 8 19 149 8 19 149 8 19 149 8 19 149 8 19 149 8 19 149 8 19 149 8 19 149 8 19 149 8 19 149 8 19 149 8 19 149 8 19 225 210 210 255 255 255 255 255 255 255 255 255 255 255 255 255 255 255 255 255 255 255 255 255 255 255 255 255 255 255 255 255 255 255 255 255 255 255 255 255 255 255 255 255 255 255 255 255 255 255 255 255 255 255 255 255 255 255 255 255 255 255 255 255 255 255 255 255 255 255 255 255 248 246 246 237 228 228 230 218 218 222 206 207 214 193 193 205 179 179 197 164 164 188 147 148 179 127 128 167 99 100 156 60 63 149 8 19 149 8 19 149 8 19 149 8 19 149 8 19 149 8 19 149 8 19 149 8 19 149 8 19 149 8 19 149 8 19 149 8 19 149 8 19 149 8 19 149 8 19 149 8 19 149 8 19 149 8 19 149 8 19 149 8 19 149 8 19 149 8 19 149 8 19 149 8 19 149 8 19 149 8 19 149 8 19 149 8 19 150 19 26 248 245 245 255 255 255 255 255 255 255 255 255 255 255 255 255 255 255 255 255 255 255 255 255 255 255 255 255 255 255 255 255 255 255 255 255 255 255 255 255 255 255 179 128 129 192 155 155 218 199 199 239 232 232 254 254 254 255 255 255 255 255 255 255 255 255 255 255 255 255 255 255 213 191 191 149 8 19 149 8 19 149 8 19 149 8 19 149 8 19 149 8 19 149 8 19 149 8 19 149 8 19 149 8 19 149 8 19 149 8 19 149 8 19 149 8 19 149 8 19 149 8 19 149 8 19 149 8 19 149 8 19 149 8 19 149 8 19 149 8 19 149 8 19 149 8 19 149 8 19 149 8 19 149 8 19 149 8 19 149 8 19 149 8 19 149 8 19 149 8 19 149 8 19 149 8 19 149 8 19 149 8 19 149 8 19 149 8 19 176 121 122 255 255 255 255 255 255 255 255 255 255 255 255 255 255 255 255 255 255 255 255 255 255 255 255 255 255 255 255 255 255 255 255 255 255 255 255 255 255 255 255 255 255 153 48 52 149 8 19 149 8 19 149 8 19 158 70 72 189 148 149 208 183 183 197 163 164 181 132 132 162 84 86 149 8 19 149 8 19 149 8 19 149 8 19 149 8 19 149 8 19 149 8 19 149 8 19 149 8 19 149 8 19 149 8 19 149 8 19 149 8 19 149 8 19 149 8 19 149 8 19 149 8 19 149 8 19 149 8 19 149 8 19 149 8 19 149 8 19 149 8 19 149 8 19 149 8 19 149 8 19 149 8 19 149 8 19 149 8 19 149 8 19 149 8 19 149 8 19 149 8 19 149 8 19 149 8 19 149 8 19 149 8 19 149 8 19 149 8 19 207 181 182 255 255 255 255 255 255 255 255 255 255 255 255 255 255 255 255 255 255 255 255 255 255 255 255 255 255 255 255 255 255 255 255 255 255 255 255 255 255 255 249 246 247 149 8 19 149 8 19 149 8 19 149 8 19 149 8 19 149 8 19 149 8 19 149 8 19 149 8 19 149 8 19 149 8 19 149 8 19 149 8 19 149 8 19 149 8 19 149 8 19 149 8 19 149 8 19 149 8 19 149 8 19 149 8 19 149 8 19 149 8 19 149 8 19 149 8 19 149 8 19 149 8 19 149 8 19 149 8 19 149 8 19 149 8 19 149 8 19 149 8 19 149 8 19 149 8 19 149 8 19 149 8 19 149 8 19 149 8 19 149 8 19 149 8 19 149 8 19 149 8 19 149 8 19 149 8 19 149 8 19 149 8 19 149 8 19 149 8 19 233 223 223 255 255 255 255 255 255 255 255 255 255 255 255 255 255 255 255 255 255 255 255 255 255 255 255 255 255 255 255 255 255 255 255 255 255 255 255 255 255 255 241 235 235 149 8 19 149 8 19 149 8 19 149 8 19 149 8 19 149 8 19 149 8 19 149 8 19 149 8 19 149 8 19 149 8 19 149 8 19 149 8 19 149 8 19 149 8 19 149 8 19 149 8 19 149 8 19 149 8 19 149 8 19 149 8 19 149 8 19 149 8 19 149 8 19 149 8 19 149 8 19 149 8 19 149 8 19 149 8 19 149 8 19 149 8 19 149 8 19 149 8 19 149 8 19 149 8 19 149 8 19 149 8 19 149 8 19 149 8 19 149 8 19 149 8 19 149 8 19 149 8 19 149 8 19 149 8 19 149 8 19 149 8 19 149 8 19 154 55 57 253 252 252 255 255 255 255 255 255 255 255 255 255 255 255 255 255 255 255 255 255 255 255 255 255 255 255 255 255 255 255 255 255 255 255 255 255 255 255 255 255 255 233 222 223 149 8 19 149 8 19 149 8 19 149 8 19 149 8 19 149 8 19 149 8 19 149 8 19 149 8 19 149 8 19 149 8 19 149 8 19 149 8 19 149 8 19 149 8 19 149 8 19 149 8 19 149 8 19 149 8 19 149 8 19 149 8 19 149 8 19 149 8 19 149 8 19 149 8 19 149 8 19 149 8 19 149 8 19 149 8 19 149 8 19 149 8 19 149 8 19 149 8 19 149 8 19 149 8 19 149 8 19 149 8 19 149 8 19 149 8 19 149 8 19 149 8 19 149 8 19 149 8 19 149 8 19 149 8 19 149 8 19 149 8 19 149 8 19 187 145 146 255 255 255 255 255 255 255 255 255 255 255 255 255 255 255 255 255 255 255 255 255 255 255 255 255 255 255 255 255 255 255 255 255 255 255 255 255 255 255 255 255 255 224 208 208 149 8 19 149 8 19 149 8 19 149 8 19 149 8 19 149 8 19 149 8 19 149 8 19 149 8 19 149 8 19 149 8 19 149 8 19 149 8 19 149 8 19 149 8 19 149 8 19 149 8 19 149 8 19 149 8 19 149 8 19 149 8 19 149 8 19 149 8 19 149 8 19 149 8 19 149 8 19 149 8 19 149 8 19 149 8 19 149 8 19 149 8 19 149 8 19 149 8 19 149 8 19 149 8 19 149 8 19 149 8 19 149 8 19 149 8 19 149 8 19 149 8 19 149 8 19 149 8 19 149 8 19 149 8 19 149 8 19 149 8 19 149 8 19 216 197 197 255 255 255 255 255 255 255 255 255 255 255 255 255 255 255 255 255 255 255 255 255 255 255 255 255 255 255 255 255 255 255 255 255 255 255 255 255 255 255 255 255 255 215 195 195 149 8 19 149 8 19 149 8 19 149 8 19 149 8 19 149 8 19 149 8 19 149 8 19 149 8 19 149 8 19 149 8 19 149 8 19 149 8 19 149 8 19 149 8 19 149 8 19 149 8 19 149 8 19 149 8 19 149 8 19 149 8 19 149 8 19 149 8 19 149 8 19 149 8 19 149 8 19 149 8 19 149 8 19 149 8 19 149 8 19 149 8 19 149 8 19 149 8 19 149 8 19 149 8 19 149 8 19 149 8 19 149 8 19 149 8 19 149 8 19 149 8 19 149 8 19 149 8 19 149 8 19 149 8 19 149 8 19 149 8 19 149 8 19 241 235 235 255 255 255 255 255 255 255 255 255 255 255 255 255 255 255 255 255 255 255 255 255 255 255 255 255 255 255 255 255 255 255 255 255 255 255 255 255 255 255 255 255 255 205 178 178 149 8 19 149 8 19 149 8 19 149 8 19 149 8 19 149 8 19 149 8 19 149 8 19 149 8 19 149 8 19 149 8 19 149 8 19 149 8 19 149 8 19 149 8 19 149 8 19 149 8 19 149 8 19 149 8 19 149 8 19 149 8 19 149 8 19 149 8 19 149 8 19 149 8 19 149 8 19 149 8 19 149 8 19 149 8 19 149 8 19 149 8 19 149 8 19 149 8 19 149 8 19 149 8 19 149 8 19 149 8 19 149 8 19 149 8 19 149 8 19 149 8 19 149 8 19 149 8 19 149 8 19 149 8 19 149 8 19 149 8 19 150 19 26 194 158 159 200 170 170 200 170 170 200 170 170 200 170 170 200 170 170 202 173 173 207 182 182 207 182 182 207 182 182 207 182 182 204 176 177 200 170 170 200 170 170 200 170 170 171 108 110 149 8 19 149 8 19 149 8 19 149 8 19 149 8 19 149 8 19 149 8 19 149 8 19 149 8 19 149 8 19 149 8 19 149 8 19 149 8 19 149 8 19 149 8 19 149 8 19 149 8 19 149 8 19 149 8 19 149 8 19 149 8 19 149 8 19 149 8 19 149 8 19 149 8 19 149 8 19 149 8 19 149 8 19 149 8 19 149 8 19 149 8 19 149 8 19 149 8 19 149 8 19 149 8 19 149 8 19 149 8 19 149 8 19 149 8 19 149 8 19 149 8 19 149 8 19 149 8 19 149 8 19 149 8 19 149 8 19 149 8 19 149 8 19 149 8 19 149 8 19 149 8 19 149 8 19 149 8 19 149 8 19 149 8 19 149 8 19 149 8 19 149 8 19 149 8 19 149 8 19 149 8 19 149 8 19 149 8 19 149 8 19 149 8 19 149 8 19 149 8 19 149 8 19 149 8 19 149 8 19 149 8 19 149 8 19 149 8 19 149 8 19 149 8 19 149 8 19 149 8 19 149 8 19 149 8 19 149 8 19 149 8 19 149 8 19 149 8 19 149 8 19 149 8 19 149 8 19 149 8 19 149 8 19 149 8 19 149 8 19 149 8 19 149 8 19 149 8 19 149 8 19 149 8 19 149 8 19 149 8 19 149 8 19 149 8 19 149 8 19 149 8 19 149 8 19 149 8 19 149 8 19 149 8 19 149 8 19 149 8 19 149 8 19 149 8 19 149 8 19 149 8 19 149 8 19 149 8 19 149 8 19 149 8 19 149 8 19 149 8 19 149 8 19 149 8 19 149 8 19 149 8 19 149 8 19 149 8 19 149 8 19 149 8 19 149 8 19 149 8 19 149 8 19 149 8 19 149 8 19 149 8 19 149 8 19 149 8 19 149 8 19 149 8 19 149 8 19 149 8 19 149 8 19 149 8 19 149 8 19 149 8 19 149 8 19 149 8 19 149 8 19 149 8 19 149 8 19 149 8 19 149 8 19 149 8 19 149 8 19 149 8 19 149 8 19 149 8 19 149 8 19 149 8 19 149 8 19 149 8 19 149 8 19 149 8 19 149 8 19 149 8 19 149 8 19 149 8 19 149 8 19 149 8 19 149 8 19 149 8 19 149 8 19 149 8 19 149 8 19 149 8 19 149 8 19 149 8 19 149 8 19 149 8 19 149 8 19 149 8 19 149 8 19 149 8 19 149 8 19 149 8 19 149 8 19 149 8 19 149 8 19 149 8 19 149 8 19 149 8 19 149 8 19 149 8 19 149 8 19 149 8 19 149 8 19 149 8 19 149 8 19 149 8 19 149 8 19 149 8 19 149 8 19 149 8 19 149 8 19 149 8 19 149 8 19 149 8 19 149 8 19 149 8 19 149 8 19 149 8 19 149 8 19 149 8 19 149 8 19 149 8 19 149 8 19 149 8 19 149 8 19 149 8 19 149 8 19 149 8 19 149 8 19 149 8 19 149 8 19 149 8 19 149 8 19 149 8 19 149 8 19 149 8 19 149 8 19 149 8 19 149 8 19 149 8 19 149 8 19 149 8 19 149 8 19 149 8 19 149 8 19 149 8 19 149 8 19 149 8 19 149 8 19 149 8 19 149 8 19 149 8 19 149 8 19 149 8 19 149 8 19 149 8 19 149 8 19 149 8 19 149 8 19 149 8 19 149 8 19 149 8 19 149 8 19 149 8 19 149 8 19 149 8 19 149 8 19 149 8 19 149 8 19 149 8 19 149 8 19 149 8 19 149 8 19 149 8 19 149 8 19 149 8 19 149 8 19 149 8 19 149 8 19 149 8 19 149 8 19 149 8 19 149 8 19 149 8 19 149 8 19 149 8 19 149 8 19 149 8 19 149 8 19 149 8 19 149 8 19 149 8 19 149 8 19 149 8 19 149 8 19 149 8 19 149 8 19 149 8 19 149 8 19 149 8 19 149 8 19 149 8 19 149 8 19 149 8 19 149 8 19 149 8 19 149 8 19 149 8 19 149 8 19 149 8 19 149 8 19 149 8 19 149 8 19 149 8 19 149 8 19 149 8 19 149 8 19 149 8 19 149 8 19 149 8 19 149 8 19 149 8 19 149 8 19 149 8 19 149 8 19 149 8 19 149 8 19 149 8 19 149 8 19 149 8 19 149 8 19 149 8 19 149 8 19 149 8 19 149 8 19 149 8 19 149 8 19 149 8 19 149 8 19 149 8 19 149 8 19 149 8 19 149 8 19 149 8 19 149 8 19 149 8 19 149 8 19 149 8 19 149 8 19 149 8 19 149 8 19 149 8 19 149 8 19 149 8 19 149 8 19 149 8 19 149 8 19 149 8 19 149 8 19 149 8 19 149 8 19 149 8 19 149 8 19 149 8 19 149 8 19 149 8 19 149 8 19 149 8 19 149 8 19 149 8 19 149 8 19 149 8 19 149 8 19 149 8 19 149 8 19 149 8 19 149 8 19 149 8 19 149 8 19 149 8 19 149 8 19 149 8 19 149 8 19 149 8 19 149 8 19 149 8 19 149 8 19 149 8 19 149 8 19 149 8 19 149 8 19 149 8 19 149 8 19 149 8 19 149 8 19 149 8 19 149 8 19 149 8 19 149 8 19 149 8 19 149 8 19 149 8 19 149 8 19 149 8 19 149 8 19 149 8 19 149 8 19 149 8 19 149 8 19 149 8 19 149 8 19 149 8 19 149 8 19 149 8 19 149 8 19 149 8 19 149 8 19 149 8 19 149 8 19 149 8 19 149 8 19 149 8 19 149 8 19 149 8 19 149 8 19 149 8 19 149 8 19 149 8 19 149 8 19 149 8 19 149 8 19 149 8 19 149 8 19 149 8 19 149 8 19 149 8 19 149 8 19 149 8 19 149 8 19 149 8 19 149 8 19 149 8 19 149 8 19 149 8 19 149 8 19 149 8 19 149 8 19 149 8 19 149 8 19 149 8 19 149 8 19 149 8 19 149 8 19 149 8 19 149 8 19 149 8 19 149 8 19 149 8 19 149 8 19 149 8 19 149 8 19 149 8 19 149 8 19 149 8 19 149 8 19 149 8 19 149 8 19 149 8 19 149 8 19 149 8 19 149 8 19 149 8 19 149 8 19 149 8 19 149 8 19 149 8 19 149 8 19 149 8 19 149 8 19 149 8 19 149 8 19 149 8 19 149 8 19 149 8 19 149 8 19 149 8 19 149 8 19 149 8 19 149 8 19 149 8 19 149 8 19 149 8 19 149 8 19 149 8 19 149 8 19 149 8 19 149 8 19 149 8 19 149 8 19 149 8 19 149 8 19 149 8 19 149 8 19 149 8 19 149 8 19 149 8 19 149 8 19 149 8 19 149 8 19 149 8 19 149 8 19 149 8 19 149 8 19 149 8 19 149 8 19 149 8 19 149 8 19 149 8 19 149 8 19 149 8 19 149 8 19 149 8 19 149 8 19 149 8 19 149 8 19 149 8 19 149 8 19 149 8 19 149 8 19 149 8 19 149 8 19 149 8 19 149 8 19 149 8 19 149 8 19 149 8 19 149 8 19 149 8 19 149 8 19 149 8 19 149 8 19 149 8 19 149 8 19 149 8 19 149 8 19 149 8 19 149 8 19 149 8 19 149 8 19 149 8 19 149 8 19 149 8 19 149 8 19 149 8 19 149 8 19 149 8 19 149 8 19 149 8 19 149 8 19 149 8 19 149 8 19 149 8 19 149 8 19 149 8 19 149 8 19 149 8 19 149 8 19 149 8 19 149 8 19 149 8 19 149 8 19 149 8 19 149 8 19 149 8 19 149 8 19 149 8 19 149 8 19 149 8 19 149 8 19 149 8 19 149 8 19 149 8 19 149 8 19 149 8 19 149 8 19 149 8 19 149 8 19 149 8 19 149 8 19 149 8 19 149 8 19 149 8 19 149 8 19 149 8 19 149 8 19 149 8 19 149 8 19 149 8 19 149 8 19 149 8 19 149 8 19 149 8 19 149 8 19 149 8 19 149 8 19 149 8 19 149 8 19 149 8 19 149 8 19 149 8 19 149 8 19 149 8 19 149 8 19 149 8 19 149 8 19 149 8 19 149 8 19 149 8 19 149 8 19 149 8 19 149 8 19 149 8 19 149 8 19 149 8 19 149 8 19 149 8 19 149 8 19 149 8 19 149 8 19 149 8 19 149 8 19 149 8 19 149 8 19 149 8 19 149 8 19 149 8 19 149 8 19 149 8 19 149 8 19 149 8 19 149 8 19 149 8 19 149 8 19 149 8 19 149 8 19 149 8 19 149 8 19 149 8 19 149 8 19 149 8 19 149 8 19 149 8 19 149 8 19 149 8 19 149 8 19 149 8 19 149 8 19 149 8 19 149 8 19 149 8 19 149 8 19 149 8 19 149 8 19 149 8 19 149 8 19 149 8 19 149 8 19 149 8 19 149 8 19 149 8 19 149 8 19 149 8 19 149 8 19 149 8 19 149 8 19 149 8 19 149 8 19 149 8 19 149 8 19 149 8 19 149 8 19 149 8 19 149 8 19 149 8 19 149 8 19 149 8 19 149 8 19 149 8 19 149 8 19 