P3
64 64 255

149 8 19 149 8 19 149 8 19 149 8 19 149 8 19 149 8 19 149 8 19 149 8 19 149 8 19 149 8 19 149 8 19 149 8 19 149 8 19 149 8 19 149 8 19 149 8 19 149 8 19 149 8 19 149 8 19 149 8 19 149 8 19 149 8 19 149 8 19 149 8 19 149 8 19 149 8 19 149 8 19 149 8 19 149 8 19 149 8 19 149 8 19 149 8 19 149 8 19 149 8 19 149 8 19 149 8 19 149 8 19 149 8 19 149 8 19 149 8 19 149 8 19 149 8 19 149 8 19 149 8 19 149 8 19 149 8 19 149 8 19 149 8 19 149 8 19 149 8 19 149 8 19 149 8 19 149 8 19 149 8 19 149 8 19 149 8 19 149 8 19 149 8 19 149 8 19 149 8 19 149 8 19 149 8 19 149 8 19 149 8 19 149 8 19 149 8 19 149 8 19 149 8 19 149 8 19 149 8 19 149 8 19 149 8 19 149 8 19 149 8 19 149 8 19 149 8 19 149 8 19 149 8 19 149 8 19 149 8 19 149 8 19 149 8 19 149 8 19 149 8 19 149 8 19 149 8 19 149 8 19 149 8 19 149 8 19 149 8 19 149 8 19 149 8 19 149 8 19 149 8 19 161 80 82 216 196 197 151 32 37 149 8 19 149 8 19 149 8 19 149 8 19 149 8 19 149 8 19 149 8 19 149 8 19 149 8 19 149 8 19 149 8 19 149 8 19 149 8 19 149 8 19 149 8 19 149 8 19 149 8 19 149 8 19 149 8 19 149 8 19 149 8 19 149 8 19 149 8 19 149 8 19 149 8 19 149 8 19 149 8 19 149 8 19 149 8 19 149 8 19 149 8 19 149 8 19 149 8 19 149 8 19 149 8 19 149 8 19 149 8 19 149 8 19 149 8 19 149 8 19 149 8 19 149 8 19 149 8 19 149 8 19 149 8 19 149 8 19 149 8 19 149 8 19 149 8 19 149 8 19 149 8 19 149 8 19 149 8 19 149 8 19 149 8 19 149 8 19 149 8 19 149 8 19 149 8 19 149 8 19 190 151 151 248 245 245 255 255 255 195 161 161 149 8 19 149 8 19 149 8 19 149 8 19 149 8 19 149 8 19 149 8 19 149 8 19 149 8 19 149 8 19 149 8 19 149 8 19 149 8 19 149 8 19 149 8 19 149 8 19 149 8 19 149 8 19 149 8 19 149 8 19 149 8 19 149 8 19 149 8 19 149 8 19 149 8 19 149 8 19 149 8 19 149 8 19 149 8 19 149 8 19 149 8 19 149 8 19 149 8 19 149 8 19 149 8 19 149 8 19 149 8 19 149 8 19 149 8 19 149 8 19 149 8 19 149 8 19 149 8 19 149 8 19 149 8 19 149 8 19 149 8 19 149 8 19 149 8 19 149 8 19 149 8 19 149 8 19 149 8 19 149 8 19 149 8 19 149 8 19 149 8 19 149 8 19 157 68 70 222 206 207 255 255 255 255 255 255 255 255 255 242 237 237 150 26 32 149 8 19 149 8 19 149 8 19 149 8 19 149 8 19 149 8 19 149 8 19 149 8 19 149 8 19 149 8 19 149 8 19 149 8 19 149 8 19 149 8 19 149 8 19 149 8 19 149 8 19 149 8 19 149 8 19 149 8 19 149 8 19 149 8 19 149 8 19 149 8 19 149 8 19 149 8 19 149 8 19 149 8 19 149 8 19 149 8 19 149 8 19 149 8 19 149 8 19 149 8 19 149 8 19 149 8 19 149 8 19 149 8 19 149 8 19 149 8 19 149 8 19 149 8 19 149 8 19 149 8 19 149 8 19 149 8 19 149 8 19 149 8 19 149 8 19 149 8 19 149 8 19 149 8 19 149 8 19 149 8 19 149 8 19 149 8 19 184 140 140 245 241 241 255 255 255 255 255 255 255 255 255 255 255 255 255 255 255 194 159 160 149 8 19 149 8 19 149 8 19 149 8 19 149 8 19 149 8 19 149 8 19 149 8 19 149 8 19 149 8 19 149 8 19 149 8 19 149 8 19 149 8 19 149 8 19 149 8 19 149 8 19 149 8 19 149 8 19 149 8 19 149 8 19 149 8 19 149 8 19 149 8 19 149 8 19 149 8 19 149 8 19 149 8 19 149 8 19 149 8 19 149 8 19 149 8 19 149 8 19 149 8 19 149 8 19 149 8 19 149 8 19 149 8 19 149 8 19 149 8 19 149 8 19 149 8 19 149 8 19 149 8 19 149 8 19 149 8 19 149 8 19 149 8 19 149 8 19 149 8 19 149 8 19 149 8 19 149 8 19 149 8 19 154 55 57 218 199 199 255 255 255 255 255 255 255 255 255 255 255 255 255 255 255 255 255 255 255 255 255 241 235 235 150 26 32 149 8 19 149 8 19 149 8 19 149 8 19 149 8 19 149 8 19 149 8 19 149 8 19 149 8 19 149 8 19 149 8 19 149 8 19 149 8 19 149 8 19 149 8 19 149 8 19 149 8 19 149 8 19 149 8 19 149 8 19 149 8 19 149 8 19 149 8 19 149 8 19 149 8 19 149 8 19 149 8 19 149 8 19 149 8 19 149 8 19 149 8 19 149 8 19 149 8 19 149 8 19 149 8 19 149 8 19 149 8 19 149 8 19 149 8 19 149 8 19 149 8 19 149 8 19 149 8 19 149 8 19 149 8 19 149 8 19 149 8 19 149 8 19 149 8 19 149 8 19 149 8 19 149 8 19 179 128 129 242 237 237 255 255 255 255 255 255 255 255 255 255 255 255 255 255 255 255 255 255 255 255 255 255 255 255 255 255 255 193 157 157 149 8 19 149 8 19 149 8 19 149 8 19 149 8 19 149 8 19 149 8 19 149 8 19 149 8 19 149 8 19 149 8 19 149 8 19 149 8 19 149 8 19 149 8 19 149 8 19 149 8 19 149 8 19 149 8 19 149 8 19 149 8 19 149 8 19 149 8 19 149 8 19 149 8 19 149 8 19 149 8 19 149 8 19 149 8 19 149 8 19 149 8 19 149 8 19 149 8 19 149 8 19 149 8 19 149 8 19 149 8 19 149 8 19 149 8 19 149 8 19 149 8 19 149 8 19 149 8 19 149 8 19 149 8 19 149 8 19 149 8 19 149 8 19 149 8 19 149 8 19 152 41 45 213 191 192 254 253 253 255 255 255 255 255 255 255 255 255 255 255 255 255 255 255 255 255 255 255 255 255 255 255 255 255 255 255 255 255 255 241 234 234 150 19 26 149 8 19 149 8 19 149 8 19 149 8 19 149 8 19 149 8 19 149 8 19 149 8 19 149 8 19 149 8 19 149 8 19 149 8 19 149 8 19 149 8 19 149 8 19 149 8 19 149 8 19 149 8 19 149 8 19 149 8 19 149 8 19 149 8 19 149 8 19 149 8 19 149 8 19 149 8 19 149 8 19 149 8 19 149 8 19 149 8 19 149 8 19 149 8 19 149 8 19 149 8 19 149 8 19 149 8 19 149 8 19 149 8 19 149 8 19 149 8 19 149 8 19 149 8 19 149 8 19 149 8 19 149 8 19 149 8 19 149 8 19 149 8 19 149 8 19 237 229 229 255 255 255 255 255 255 255 255 255 255 255 255 255 255 255 255 255 255 255 255 255 255 255 255 255 255 255 255 255 255 255 255 255 255 255 255 255 255 255 192 154 155 149 8 19 149 8 19 149 8 19 149 8 19 149 8 19 149 8 19 149 8 19 149 8 19 149 8 19 149 8 19 149 8 19 149 8 19 149 8 19 149 8 19 149 8 19 149 8 19 149 8 19 149 8 19 149 8 19 149 8 19 149 8 19 149 8 19 149 8 19 149 8 19 149 8 19 149 8 19 149 8 19 149 8 19 149 8 19 149 8 19 149 8 19 149 8 19 149 8 19 149 8 19 149 8 19 149 8 19 149 8 19 149 8 19 149 8 19 149 8 19 149 8 19 149 8 19 149 8 19 149 8 19 149 8 19 149 8 19 149 8 19 149 8 19 157 68 70 255 255 255 255 255 255 255 255 255 255 255 255 255 255 255 255 255 255 255 255 255 255 255 255 255 255 255 255 255 255 255 255 255 255 255 255 255 255 255 255 255 255 240 233 233 150 19 26 149 8 19 149 8 19 149 8 19 149 8 19 149 8 19 149 8 19 149 8 19 149 8 19 149 8 19 149 8 19 149 8 19 149 8 19 149 8 19 149 8 19 149 8 19 149 8 19 149 8 19 149 8 19 149 8 19 149 8 19 149 8 19 149 8 19 149 8 19 149 8 19 149 8 19 149 8 19 149 8 19 149 8 19 149 8 19 149 8 19 149 8 19 149 8 19 149 8 19 149 8 19 149 8 19 149 8 19 149 8 19 149 8 19 149 8 19 149 8 19 149 8 19 149 8 19 149 8 19 149 8 19 149 8 19 149 8 19 149 8 19 176 121 122 255 255 255 255 255 255 255 255 255 255 255 255 255 255 255 255 255 255 255 255 255 255 255 255 255 255 255 255 255 255 255 255 255 255 255 255 255 255 255 255 255 255 255 255 255 190 151 152 149 8 19 149 8 19 149 8 19 149 8 19 149 8 19 149 8 19 149 8 19 149 8 19 149 8 19 149 8 19 149 8 19 149 8 19 149 8 19 149 8 19 149 8 19 149 8 19 149 8 19 149 8 19 149 8 19 149 8 19 149 8 19 149 8 19 149 8 19 149 8 19 149 8 19 149 8 19 149 8 19 149 8 19 149 8 19 149 8 19 149 8 19 149 8 19 149 8 19 149 8 19 149 8 19 149 8 19 149 8 19 149 8 19 149 8 19 149 8 19 149 8 19 149 8 19 149 8 19 149 8 19 149 8 19 149 8 19 149 8 19 193 157 157 255 255 255 255 255 255 255 255 255 255 255 255 255 255 255 255 255 255 255 255 255 255 255 255 255 255 255 255 255 255 255 255 255 255 255 255 255 255 255 255 255 255 255 255 255 239 231 231 150 19 26 149 8 19 149 8 19 149 8 19 149 8 19 149 8 19 149 8 19 149 8 19 149 8 19 149 8 19 149 8 19 149 8 19 149 8 19 149 8 19 149 8 19 149 8 19 149 8 19 149 8 19 149 8 19 149 8 19 149 8 19 149 8 19 149 8 19 149 8 19 149 8 19 149 8 19 149 8 19 149 8 19 149 8 19 149 8 19 149 8 19 149 8 19 149 8 19 149 8 19 149 8 19 149 8 19 149 8 19 149 8 19 149 8 19 149 8 19 149 8 19 149 8 19 149 8 19 149 8 19 149 8 19 149 8 19 149 8 19 208 183 184 255 255 255 255 255 255 255 255 255 255 255 255 255 255 255 255 255 255 255 255 255 255 255 255 255 255 255 255 255 255 255 255 255 255 255 255 255 255 255 255 255 255 255 255 255 255 255 255 189 149 149 149 8 19 149 8 19 149 8 19 149 8 19 149 8 19 149 8 19 149 8 19 149 8 19 149 8 19 149 8 19 149 8 19 149 8 19 149 8 19 149 8 19 149 8 19 149 8 19 149 8 19 149 8 19 149 8 19 149 8 19 149 8 19 149 8 19 149 8 19 149 8 19 149 8 19 149 8 19 149 8 19 149 8 19 149 8 19 149 8 19 149 8 19 149 8 19 149 8 19 149 8 19 149 8 19 149 8 19 149 8 19 149 8 19 149 8 19 149 8 19 149 8 19 149 8 19 149 8 19 149 8 19 149 8 19 149 8 19 222 205 206 255 255 255 255 255 255 255 255 255 255 255 255 255 255 255 255 255 255 255 255 255 255 255 255 255 255 255 255 255 255 255 255 255 255 255 255 255 255 255 255 255 255 255 255 255 255 255 255 238 230 230 149 8 19 149 8 19 149 8 19 149 8 19 149 8 19 149 8 19 149 8 19 149 8 19 149 8 19 149 8 19 149 8 19 149 8 19 149 8 19 149 8 19 149 8 19 149 8 19 149 8 19 149 8 19 149 8 19 149 8 19 149 8 19 149 8 19 149 8 19 149 8 19 149 8 19 149 8 19 149 8 19 149 8 19 149 8 19 149 8 19 149 8 19 149 8 19 149 8 19 149 8 19 149 8 19 149 8 19 149 8 19 149 8 19 149 8 19 149 8 19 149 8 19 149 8 19 149 8 19 149 8 19 149 8 19 149 8 19 235 225 225 255 255 255 255 255 255 255 255 255 255 255 255 255 255 255 255 255 255 255 255 255 255 255 255 255 255 255 255 255 255 255 255 255 255 255 255 255 255 255 255 255 255 255 255 255 255 255 255 255 255 255 188 147 148 149 8 19 149 8 19 149 8 19 149 8 19 149 8 19 149 8 19 149 8 19 149 8 19 149 8 19 149 8 19 149 8 19 149 8 19 149 8 19 149 8 19 149 8 19 149 8 19 149 8 19 149 8 19 149 8 19 149 8 19 149 8 19 149 8 19 149 8 19 149 8 19 149 8 19 149 8 19 149 8 19 149 8 19 149 8 19 149 8 19 149 8 19 149 8 19 149 8 19 149 8 19 149 8 19 149 8 19 149 8 19 149 8 19 149 8 19 149 8 19 149 8 19 149 8 19 149 8 19 149 8 19 149 8 19 222 206 207 255 255 255 255 255 255 255 255 255 255 255 255 255 255 255 255 255 255 255 255 255 255 255 255 255 255 255 255 255 255 255 255 255 255 255 255 255 255 255 255 255 255 255 255 255 255 255 255 255 255 255 237 229 229 149 8 19 149 8 19 149 8 19 149 8 19 149 8 19 149 8 19 149 8 19 149 8 19 149 8 19 149 8 19 149 8 19 149 8 19 149 8 19 149 8 19 149 8 19 149 8 19 149 8 19 149 8 19 149 8 19 149 8 19 149 8 19 149 8 19 149 8 19 149 8 19 149 8 19 149 8 19 149 8 19 149 8 19 149 8 19 149 8 19 149 8 19 149 8 19 149 8 19 149 8 19 149 8 19 149 8 19 149 8 19 149 8 19 149 8 19 149 8 19 149 8 19 149 8 19 149 8 19 149 8 19 149 8 19 155 57 60 237 229 229 255 255 255 255 255 255 255 255 255 255 255 255 255 255 255 255 255 255 255 255 255 255 255 255 255 255 255 255 255 255 255 255 255 255 255 255 255 255 255 255 255 255 255 255 255 255 255 255 255 255 255 187 144 145 149 8 19 149 8 19 149 8 19 149 8 19 149 8 19 149 8 19 149 8 19 149 8 19 149 8 19 149 8 19 149 8 19 149 8 19 149 8 19 149 8 19 149 8 19 149 8 19 149 8 19 149 8 19 149 8 19 149 8 19 149 8 19 149 8 19 149 8 19 149 8 19 149 8 19 149 8 19 149 8 19 149 8 19 149 8 19 149 8 19 149 8 19 149 8 19 149 8 19 149 8 19 149 8 19 149 8 19 149 8 19 149 8 19 149 8 19 149 8 19 149 8 19 149 8 19 149 8 19 149 8 19 149 8 19 161 82 84 244 239 239 255 255 255 255 255 255 255 255 255 255 255 255 255 255 255 255 255 255 255 255 255 255 255 255 255 255 255 255 255 255 255 255 255 255 255 255 255 255 255 255 255 255 255 255 255 255 255 255 236 227 227 149 8 19 149 8 19 149 8 19 149 8 19 149 8 19 149 8 19 149 8 19 149 8 19 149 8 19 149 8 19 149 8 19 149 8 19 149 8 19 149 8 19 149 8 19 149 8 19 149 8 19 149 8 19 149 8 19 149 8 19 149 8 19 149 8 19 149 8 19 149 8 19 149 8 19 149 8 19 149 8 19 149 8 19 149 8 19 149 8 19 149 8 19 149 8 19 149 8 19 149 8 19 149 8 19 149 8 19 149 8 19 149 8 19 149 8 19 149 8 19 149 8 19 149 8 19 149 8 19 149 8 19 149 8 19 149 8 19 169 106 107 250 247 247 255 255 255 255 255 255 255 255 255 255 255 255 255 255 255 255 255 255 255 255 255 255 255 255 255 255 255 255 255 255 255 255 255 255 255 255 255 255 255 255 255 255 255 255 255 255 255 255 185 142 142 149 8 19 149 8 19 149 8 19 149 8 19 149 8 19 149 8 19 149 8 19 149 8 19 149 8 19 149 8 19 149 8 19 149 8 19 149 8 19 149 8 19 149 8 19 149 8 19 149 8 19 149 8 19 149 8 19 149 8 19 149 8 19 149 8 19 149 8 19 149 8 19 149 8 19 149 8 19 149 8 19 149 8 19 149 8 19 149 8 19 149 8 19 149 8 19 149 8 19 149 8 19 149 8 19 149 8 19 149 8 19 149 8 19 149 8 19 149 8 19 149 8 19 149 8 19 149 8 19 149 8 19 149 8 19 149 8 19 202 172 173 255 255 255 255 255 255 255 255 255 255 255 255 255 255 255 255 255 255 255 255 255 255 255 255 255 255 255 255 255 255 255 255 255 255 255 255 255 255 255 255 255 255 255 255 255 255 255 255 235 226 226 149 8 19 149 8 19 149 8 19 149 8 19 149 8 19 149 8 19 149 8 19 149 8 19 149 8 19 149 8 19 149 8 19 149 8 19 149 8 19 149 8 19 149 8 19 149 8 19 149 8 19 149 8 19 149 8 19 149 8 19 149 8 19 149 8 19 149 8 19 149 8 19 149 8 19 149 8 19 149 8 19 149 8 19 149 8 19 149 8 19 149 8 19 149 8 19 149 8 19 149 8 19 149 8 19 149 8 19 149 8 19 149 8 19 149 8 19 149 8 19 149 8 19 149 8 19 149 8 19 149 8 19 161 80 82 219 201 201 254 253 253 255 255 255 255 255 255 255 255 255 255 255 255 255 255 255 255 255 255 255 255 255 255 255 255 255 255 255 255 255 255 255 255 255 255 255 255 255 255 255 255 255 255 255 255 255 255 255 255 255 255 255 184 139 139 149 8 19 149 8 19 149 8 19 149 8 19 149 8 19 149 8 19 149 8 19 149 8 19 149 8 19 149 8 19 149 8 19 149 8 19 149 8 19 149 8 19 149 8 19 149 8 19 149 8 19 149 8 19 149 8 19 149 8 19 149 8 19 149 8 19 149 8 19 149 8 19 149 8 19 149 8 19 149 8 19 149 8 19 149 8 19 149 8 19 149 8 19 149 8 19 149 8 19 149 8 19 149 8 19 149 8 19 149 8 19 149 8 19 149 8 19 149 8 19 149 8 19 153 45 48 206 179 180 250 248 248 255 255 255 255 255 255 255 255 255 255 255 255 255 255 255 255 255 255 255 255 255 255 255 255 255 255 255 255 255 255 255 255 255 255 255 255 255 255 255 255 255 255 255 255 255 255 255 255 255 255 255 255 255 255 255 255 255 234 225 225 177 123 124 150 19 26 149 8 19 149 8 19 149 8 19 149 8 19 149 8 19 149 8 19 149 8 19 149 8 19 149 8 19 149 8 19 149 8 19 149 8 19 149 8 19 149 8 19 149 8 19 149 8 19 149 8 19 149 8 19 149 8 19 149 8 19 149 8 19 149 8 19 149 8 19 149 8 19 149 8 19 149 8 19 149 8 19 149 8 19 149 8 19 149 8 19 149 8 19 149 8 19 149 8 19 149 8 19 149 8 19 149 8 19 149 8 19 150 19 26 194 158 159 244 239 239 255 255 255 255 255 255 255 255 255 255 255 255 255 255 255 255 255 255 255 255 255 255 255 255 255 255 255 255 255 255 255 255 255 255 255 255 255 255 255 255 255 255 255 255 255 255 255 255 255 255 255 255 255 255 255 255 255 255 255 255 255 255 255 255 255 255 255 255 255 179 127 128 149 8 19 149 8 19 149 8 19 149 8 19 149 8 19 149 8 19 149 8 19 149 8 19 149 8 19 149 8 19 149 8 19 149 8 19 149 8 19 149 8 19 149 8 19 149 8 19 149 8 19 149 8 19 149 8 19 149 8 19 149 8 19 149 8 19 149 8 19 149 8 19 149 8 19 149 8 19 149 8 19 149 8 19 149 8 19 149 8 19 149 8 19 149 8 19 149 8 19 149 8 19 149 8 19 149 8 19 180 130 130 237 229 229 255 255 255 255 255 255 255 255 255 255 255 255 255 255 255 255 255 255 255 255 255 255 255 255 255 255 255 255 255 255 255 255 255 255 255 255 255 255 255 255 255 255 255 255 255 255 255 255 255 255 255 255 255 255 255 255 255 255 255 255 255 255 255 255 255 255 255 255 255 255 255 255 255 255 255 212 189 190 149 8 19 149 8 19 149 8 19 149 8 19 149 8 19 149 8 19 149 8 19 149 8 19 149 8 19 149 8 19 149 8 19 149 8 19 149 8 19 149 8 19 149 8 19 149 8 19 149 8 19 149 8 19 149 8 19 149 8 19 149 8 19 149 8 19 149 8 19 149 8 19 149 8 19 149 8 19 149 8 19 149 8 19 149 8 19 149 8 19 149 8 19 149 8 19 149 8 19 149 8 19 166 97 98 225 211 211 255 255 255 255 255 255 255 255 255 255 255 255 255 255 255 255 255 255 255 255 255 255 255 255 255 255 255 255 255 255 255 255 255 255 255 255 255 255 255 255 255 255 255 255 255 255 255 255 255 255 255 255 255 255 255 255 255 255 255 255 255 255 255 255 255 255 255 255 255 255 255 255 255 255 255 255 255 255 255 255 255 238 231 231 149 8 19 149 8 19 149 8 19 149 8 19 149 8 19 149 8 19 149 8 19 149 8 19 149 8 19 149 8 19 149 8 19 149 8 19 149 8 19 149 8 19 149 8 19 149 8 19 149 8 19 149 8 19 149 8 19 149 8 19 149 8 19 149 8 19 149 8 19 149 8 19 149 8 19 149 8 19 149 8 19 149 8 19 149 8 19 149 8 19 149 8 19 149 8 19 156 63 65 213 191 191 252 251 251 255 255 255 255 255 255 255 255 255 255 255 255 255 255 255 255 255 255 255 255 255 255 255 255 255 255 255 255 255 255 255 255 255 255 255 255 255 255 255 255 255 255 255 255 255 255 255 255 255 255 255 255 255 255 255 255 255 255 255 255 255 255 255 255 255 255 255 255 255 255 255 255 255 255 255 255 255 255 255 255 255 255 255 255 253 252 252 150 26 32 149 8 19 149 8 19 149 8 19 149 8 19 149 8 19 149 8 19 149 8 19 149 8 19 149 8 19 149 8 19 149 8 19 149 8 19 149 8 19 149 8 19 149 8 19 149 8 19 149 8 19 149 8 19 149 8 19 149 8 19 149 8 19 149 8 19 149 8 19 149 8 19 149 8 19 149 8 19 149 8 19 149 8 19 149 8 19 150 26 32 199 167 167 247 244 244 255 255 255 255 255 255 255 255 255 255 255 255 255 255 255 255 255 255 255 255 255 255 255 255 255 255 255 255 255 255 255 255 255 255 255 255 255 255 255 255 255 255 255 255 255 255 255 255 255 255 255 255 255 255 255 255 255 255 255 255 255 255 255 255 255 255 255 255 255 255 255 255 255 255 255 255 255 255 255 255 255 255 255 255 255 255 255 255 255 255 255 255 255 166 97 98 149 8 19 149 8 19 149 8 19 149 8 19 149 8 19 149 8 19 149 8 19 149 8 19 149 8 19 149 8 19 149 8 19 149 8 19 149 8 19 149 8 19 149 8 19 149 8 19 149 8 19 149 8 19 149 8 19 149 8 19 149 8 19 149 8 19 149 8 19 149 8 19 149 8 19 149 8 19 149 8 19 149 8 19 182 136 136 239 232 232 255 255 255 255 255 255 255 255 255 255 255 255 255 255 255 255 255 255 255 255 255 255 255 255 255 255 255 255 255 255 255 255 255 255 255 255 255 255 255 255 255 255 255 255 255 255 255 255 255 255 255 255 255 255 255 255 255 255 255 255 255 255 255 255 255 255 255 255 255 255 255 255 255 255 255 255 255 255 255 255 255 255 255 255 255 255 255 255 255 255 255 255 255 255 255 255 255 255 255 184 140 140 149 8 19 149 8 19 149 8 19 149 8 19 149 8 19 149 8 19 149 8 19 149 8 19 149 8 19 149 8 19 149 8 19 149 8 19 149 8 19 149 8 19 149 8 19 149 8 19 149 8 19 149 8 19 149 8 19 149 8 19 149 8 19 149 8 19 149 8 19 149 8 19 149 8 19 149 8 19 149 8 19 149 8 19 238 230 230 255 255 255 255 255 255 255 255 255 255 255 255 255 255 255 255 255 255 255 255 255 255 255 255 255 255 255 255 255 255 255 255 255 255 255 255 255 255 255 255 255 255 255 255 255 255 255 255 255 255 255 255 255 255 255 255 255 255 255 255 255 255 255 255 255 255 255 255 255 255 255 255 255 255 255 255 255 255 255 255 255 255 255 255 255 255 255 255 255 255 255 255 255 255 255 255 255 255 255 255 255 255 200 170 170 149 8 19 149 8 19 149 8 19 149 8 19 149 8 19 149 8 19 149 8 19 149 8 19 149 8 19 149 8 19 149 8 19 149 8 19 149 8 19 149 8 19 149 8 19 149 8 19 149 8 19 149 8 19 149 8 19 149 8 19 149 8 19 149 8 19 149 8 19 149 8 19 149 8 19 149 8 19 149 8 19 160 78 80 254 254 254 255 255 255 255 255 255 255 255 255 255 255 255 255 255 255 255 255 255 255 255 255 255 255 255 255 255 255 255 255 255 255 255 255 255 255 255 255 255 255 255 255 255 255 255 255 255 255 255 255 255 255 255 255 255 255 255 255 255 255 255 255 255 255 255 255 255 255 255 255 255 255 255 255 255 255 255 255 255 255 255 255 255 255 255 255 255 255 255 255 255 255 255 255 255 255 255 255 255 255 255 255 255 215 194 195 149 8 19 149 8 19 149 8 19 149 8 19 149 8 19 149 8 19 149 8 19 149 8 19 149 8 19 149 8 19 149 8 19 149 8 19 149 8 19 149 8 19 149 8 19 149 8 19 149 8 19 149 8 19 149 8 19 149 8 19 149 8 19 149 8 19 149 8 19 149 8 19 149 8 19 149 8 19 149 8 19 195 160 160 255 255 255 255 255 255 255 255 255 255 255 255 255 255 255 255 255 255 255 255 255 255 255 255 255 255 255 255 255 255 255 255 255 255 255 255 255 255 255 255 255 255 255 255 255 255 255 255 255 255 255 255 255 255 255 255 255 255 255 255 255 255 255 244 239 239 205 179 179 219 201 201 255 255 255 255 255 255 255 255 255 255 255 255 255 255 255 255 255 255 255 255 255 255 255 255 255 255 255 255 255 255 255 255 255 228 216 216 149 8 19 149 8 19 149 8 19 149 8 19 149 8 19 149 8 19 149 8 19 149 8 19 149 8 19 149 8 19 149 8 19 149 8 19 149 8 19 149 8 19 149 8 19 149 8 19 149 8 19 149 8 19 149 8 19 149 8 19 149 8 19 149 8 19 149 8 19 149 8 19 149 8 19 149 8 19 149 8 19 223 207 207 255 255 255 255 255 255 255 255 255 255 255 255 255 255 255 255 255 255 255 255 255 255 255 255 255 255 255 255 255 255 255 255 255 255 255 255 255 255 255 255 255 255 255 255 255 255 255 255 255 255 255 255 255 255 255 255 255 232 221 221 189 148 149 150 26 32 149 8 19 150 19 26 217 198 198 255 255 255 255 255 255 255 255 255 255 255 255 255 255 255 255 255 255 255 255 255 255 255 255 255 255 255 255 255 255 241 234 234 149 8 19 149 8 19 149 8 19 149 8 19 149 8 19 149 8 19 149 8 19 149 8 19 149 8 19 149 8 19 149 8 19 149 8 19 149 8 19 149 8 19 149 8 19 149 8 19 149 8 19 149 8 19 149 8 19 149 8 19 149 8 19 149 8 19 149 8 19 149 8 19 149 8 19 149 8 19 149 8 19 247 243 243 255 255 255 255 255 255 255 255 255 255 255 255 255 255 255 255 255 255 255 255 255 255 255 255 255 255 255 255 255 255 255 255 255 255 255 255 255 255 255 255 255 255 255 255 255 255 255 255 251 249 249 218 199 200 171 108 110 149 8 19 149 8 19 149 8 19 149 8 19 149 8 19 149 8 19 215 194 195 255 255 255 255 255 255 255 255 255 255 255 255 255 255 255 255 255 255 255 255 255 255 255 255 255 255 255 252 251 251 150 19 26 149 8 19 149 8 19 149 8 19 149 8 19 149 8 19 149 8 19 149 8 19 149 8 19 149 8 19 149 8 19 149 8 19 149 8 19 149 8 19 149 8 19 149 8 19 149 8 19 149 8 19 149 8 19 149 8 19 149 8 19 149 8 19 149 8 19 149 8 19 149 8 19 149 8 19 149 8 19 204 176 176 254 253 253 255 255 255 255 255 255 255 255 255 255 255 255 255 255 255 255 255 255 255 255 255 255 255 255 255 255 255 255 255 255 255 255 255 255 255 255 255 255 255 255 255 255 254 253 253 157 65 68 149 8 19 149 8 19 149 8 19 149 8 19 149 8 19 149 8 19 149 8 19 149 8 19 149 8 19 213 192 192 255 255 255 255 255 255 255 255 255 255 255 255 255 255 255 255 255 255 255 255 255 255 255 255 255 255 255 165 92 94 149 8 19 149 8 19 149 8 19 149 8 19 149 8 19 149 8 19 149 8 19 149 8 19 149 8 19 149 8 19 149 8 19 149 8 19 149 8 19 149 8 19 149 8 19 149 8 19 149 8 19 149 8 19 149 8 19 149 8 19 149 8 19 149 8 19 149 8 19 149 8 19 149 8 19 149 8 19 149 8 19 186 142 143 249 247 247 255 255 255 255 255 255 255 255 255 255 255 255 255 255 255 255 255 255 255 255 255 255 255 255 255 255 255 255 255 255 255 255 255 255 255 255 255 255 255 250 248 248 149 8 19 149 8 19 149 8 19 149 8 19 149 8 19 149 8 19 149 8 19 149 8 19 149 8 19 149 8 19 149 8 19 238 231 231 255 255 255 255 255 255 255 255 255 255 255 255 255 255 255 255 255 255 255 255 255 255 255 255 182 136 136 149 8 19 149 8 19 149 8 19 149 8 19 149 8 19 149 8 19 149 8 19 149 8 19 149 8 19 149 8 19 149 8 19 149 8 19 149 8 19 149 8 19 149 8 19 149 8 19 149 8 19 149 8 19 149 8 19 149 8 19 149 8 19 149 8 19 149 8 19 149 8 19 149 8 19 149 8 19 149 8 19 149 8 19 169 106 107 242 236 236 255 255 255 255 255 255 255 255 255 255 255 255 255 255 255 255 255 255 255 255 255 255 255 255 255 255 255 255 255 255 255 255 255 255 255 255 247 244 244 149 8 19 149 8 19 149 8 19 149 8 19 149 8 19 149 8 19 149 8 19 149 8 19 149 8 19 149 8 19 149 8 19 231 220 220 255 255 255 255 255 255 255 255 255 255 255 255 255 255 255 255 255 255 255 255 255 255 255 255 199 168 168 149 8 19 149 8 19 149 8 19 149 8 19 149 8 19 149 8 19 149 8 19 149 8 19 149 8 19 149 8 19 149 8 19 149 8 19 149 8 19 149 8 19 149 8 19 149 8 19 149 8 19 149 8 19 149 8 19 149 8 19 149 8 19 149 8 19 149 8 19 149 8 19 149 8 19 149 8 19 149 8 19 149 8 19 149 8 19 219 201 201 255 255 255 255 255 255 255 255 255 255 255 255 255 255 255 255 255 255 255 255 255 255 255 255 255 255 255 255 255 255 255 255 255 255 255 255 245 241 241 149 8 19 149 8 19 149 8 19 149 8 19 149 8 19 149 8 19 149 8 19 149 8 19 149 8 19 149 8 19 149 8 19 225 211 211 255 255 255 255 255 255 255 255 255 255 255 255 255 255 255 255 255 255 255 255 255 255 255 255 213 192 192 149 8 19 149 8 19 149 8 19 149 8 19 149 8 19 149 8 19 149 8 19 149 8 19 149 8 19 149 8 19 149 8 19 149 8 19 149 8 19 149 8 19 149 8 19 149 8 19 149 8 19 149 8 19 149 8 19 149 8 19 149 8 19 149 8 19 149 8 19 149 8 19 149 8 19 149 8 19 149 8 19 149 8 19 149 8 19 243 238 238 255 255 255 255 255 255 255 255 255 255 255 255 255 255 255 255 255 255 255 255 255 255 255 255 255 255 255 255 255 255 255 255 255 255 255 255 241 234 234 149 8 19 149 8 19 149 8 19 149 8 19 149 8 19 149 8 19 149 8 19 149 8 19 149 8 19 149 8 19 149 8 19 219 201 201 255 255 255 255 255 255 255 255 255 255 255 255 255 255 255 255 255 255 255 255 255 255 255 255 227 213 213 149 8 19 149 8 19 149 8 19 149 8 19 149 8 19 149 8 19 149 8 19 149 8 19 149 8 19 149 8 19 149 8 19 149 8 19 149 8 19 149 8 19 149 8 19 149 8 19 149 8 19 149 8 19 149 8 19 149 8 19 149 8 19 149 8 19 149 8 19 149 8 19 149 8 19 149 8 19 149 8 19 149 8 19 167 100 101 255 255 255 255 255 255 255 255 255 255 255 255 255 255 255 255 255 255 255 255 255 255 255 255 255 255 255 255 255 255 255 255 255 255 255 255 255 255 255 238 231 231 149 8 19 149 8 19 149 8 19 149 8 19 149 8 19 149 8 19 149 8 19 149 8 19 149 8 19 149 8 19 149 8 19 213 191 191 255 255 255 255 255 255 255 255 255 255 255 255 255 255 255 255 255 255 255 255 255 255 255 255 240 233 233 149 8 19 149 8 19 149 8 19 149 8 19 149 8 19 153 45 48 176 122 123 197 164 164 215 195 195 232 222 222 224 208 208 149 8 19 149 8 19 149 8 19 149 8 19 149 8 19 149 8 19 149 8 19 149 8 19 149 8 19 149 8 19 149 8 19 149 8 19 149 8 19 149 8 19 149 8 19 149 8 19 149 8 19 200 170 170 255 255 255 255 255 255 255 255 255 255 255 255 255 255 255 255 255 255 255 255 255 255 255 255 255 255 255 255 255 255 255 255 255 255 255 255 255 255 255 236 227 227 149 8 19 149 8 19 149 8 19 149 8 19 149 8 19 149 8 19 149 8 19 149 8 19 149 8 19 149 8 19 149 8 19 206 180 180 255 255 255 255 255 255 255 255 255 255 255 255 255 255 255 255 255 255 255 255 255 255 255 255 251 249 249 166 97 98 189 148 149 208 183 183 226 212 212 241 235 235 254 253 253 255 255 255 255 255 255 255 255 255 255 255 255 253 252 252 158 70 72 149 8 19 149 8 19 149 8 19 149 8 19 149 8 19 149 8 19 149 8 19 149 8 19 149 8 19 149 8 19 149 8 19 149 8 19 149 8 19 149 8 19 149 8 19 149 8 19 228 214 215 255 255 255 255 255 255 255 255 255 255 255 255 255 255 255 255 255 255 255 255 255 255 255 255 255 255 255 255 255 255 255 255 255 255 255 255 255 255 255 232 222 222 149 8 19 149 8 19 149 8 19 149 8 19 149 8 19 149 8 19 149 8 19 149 8 19 149 8 19 149 8 19 149 8 19 200 168 169 255 255 255 255 255 255 255 255 255 255 255 255 255 255 255 255 255 255 255 255 255 255 255 255 255 255 255 255 255 255 255 255 255 255 255 255 255 255 255 255 255 255 255 255 255 255 255 255 255 255 255 255 255 255 255 255 255 255 255 255 196 162 163 149 8 19 149 8 19 149 8 19 149 8 19 149 8 19 149 8 19 149 8 19 149 8 19 149 8 19 149 8 19 149 8 19 149 8 19 149 8 19 149 8 19 149 8 19 151 32 37 250 247 247 255 255 255 255 255 255 255 255 255 255 255 255 255 255 255 255 255 255 255 255 255 255 255 255 255 255 255 255 255 255 255 255 255 255 255 255 255 255 255 255 255 255 231 220 220 175 120 121 149 8 19 149 8 19 149 8 19 149 8 19 149 8 19 149 8 19 149 8 19 149 8 19 149 8 19 194 157 158 255 255 255 255 255 255 255 255 255 255 255 255 255 255 255 255 255 255 255 255 255 255 255 255 255 255 255 255 255 255 255 255 255 255 255 255 255 255 255 255 255 255 255 255 255 255 255 255 255 255 255 255 255 255 255 255 255 255 255 255 229 216 216 149 8 19 149 8 19 149 8 19 149 8 19 149 8 19 149 8 19 149 8 19 149 8 19 149 8 19 149 8 19 149 8 19 149 8 19 149 8 19 149 8 19 149 8 19 180 130 130 255 255 255 255 255 255 255 255 255 255 255 255 255 255 255 255 255 255 255 255 255 255 255 255 255 255 255 255 255 255 255 255 255 255 255 255 255 255 255 255 255 255 255 255 255 255 255 255 254 254 254 224 209 209 167 99 100 149 8 19 149 8 19 151 32 37 174 116 117 199 167 167 220 203 203 240 233 233 254 253 253 255 255 255 255 255 255 255 255 255 255 255 255 255 255 255 255 255 255 255 255 255 255 255 255 255 255 255 255 255 255 255 255 255 255 255 255 255 255 255 255 255 255 255 255 255 255 255 255 255 255 255 255 255 255 255 255 255 255 255 255 252 251 251 156 63 65 149 8 19 149 8 19 149 8 19 149 8 19 149 8 19 149 8 19 149 8 19 149 8 19 149 8 19 149 8 19 149 8 19 149 8 19 149 8 19 149 8 19 210 187 187 255 255 255 255 255 255 255 255 255 255 255 255 255 255 255 255 255 255 255 255 255 255 255 255 255 255 255 255 255 255 255 255 255 255 255 255 255 255 255 255 255 255 255 255 255 255 255 255 255 255 255 255 255 255 253 252 252 224 209 209 234 224 224 251 249 249 255 255 255 255 255 255 255 255 255 255 255 255 255 255 255 255 255 255 255 255 255 255 255 255 255 255 255 255 255 255 255 255 255 255 255 255 255 255 255 255 255 255 255 255 255 255 255 255 255 255 255 255 255 255 255 255 255 255 255 255 255 255 255 255 255 255 255 255 255 255 255 255 255 255 255 255 255 255 194 158 159 149 8 19 149 8 19 149 8 19 149 8 19 149 8 19 149 8 19 149 8 19 149 8 19 149 8 19 149 8 19 149 8 19 149 8 19 149 8 19 149 8 19 236 227 227 255 255 255 255 255 255 255 255 255 255 255 255 255 255 255 255 255 255 255 255 255 255 255 255 255 255 255 255 255 255 255 255 255 255 255 255 255 255 255 255 255 255 255 255 255 255 255 255 255 255 255 255 255 255 255 255 255 255 255 255 255 255 255 255 255 255 255 255 255 255 255 255 255 255 255 255 255 255 255 255 255 255 255 255 255 255 255 255 255 255 255 255 255 255 255 255 255 255 255 255 255 255 255 255 255 255 255 255 255 255 255 255 255 255 255 255 255 255 255 255 255 255 255 255 255 255 255 255 255 255 255 255 255 255 255 255 255 255 255 255 255 255 255 255 227 213 213 149 8 19 149 8 19 149 8 19 149 8 19 149 8 19 149 8 19 149 8 19 149 8 19 149 8 19 149 8 19 149 8 19 149 8 19 149 8 19 158 70 72 254 253 253 255 255 255 255 255 255 255 255 255 255 255 255 255 255 255 255 255 255 255 255 255 255 255 255 255 255 255 255 255 255 255 255 255 255 255 255 255 255 255 255 255 255 255 255 255 255 255 255 255 255 255 255 255 255 255 255 255 255 255 255 255 255 255 255 255 255 255 255 255 255 255 255 255 255 255 255 255 255 255 255 255 255 255 255 255 255 255 255 255 255 255 255 255 255 255 255 255 255 255 255 255 255 255 255 255 255 255 255 255 255 255 255 255 255 255 255 255 255 255 255 255 255 255 255 255 255 255 255 255 255 255 255 255 255 255 255 255 255 255 255 255 255 255 255 252 250 250 154 55 57 149 8 19 149 8 19 149 8 19 149 8 19 149 8 19 149 8 19 149 8 19 149 8 19 149 8 19 149 8 19 149 8 19 149 8 19 190 151 152 255 255 255 255 255 255 255 255 255 255 255 255 255 255 255 255 255 255 255 255 255 255 255 255 255 255 255 255 255 255 255 255 255 255 255 255 255 255 255 255 255 255 255 255 255 255 255 255 255 255 255 255 255 255 255 255 255 255 255 255 255 255 255 255 255 255 255 255 255 255 255 255 255 255 255 255 255 255 255 255 255 255 255 255 255 255 255 255 255 255 255 255 255 255 255 255 255 255 255 255 255 255 255 255 255 255 255 255 255 255 255 255 255 255 255 255 255 255 255 255 255 255 255 255 255 255 255 255 255 255 255 255 255 255 255 255 255 255 255 255 255 255 255 255 255 255 255 255 255 255 192 154 155 149 8 19 149 8 19 149 8 19 149 8 19 149 8 19 149 8 19 149 8 19 149 8 19 149 8 19 149 8 19 149 8 19 149 8 19 219 202 202 255 255 255 255 255 255 255 255 255 255 255 255 255 255 255 255 255 255 255 255 255 255 255 255 255 255 255 255 255 255 255 255 255 255 255 255 255 255 255 255 255 255 255 255 255 255 255 255 255 255 255 255 255 255 255 255 255 255 255 255 255 255 255 255 255 255 255 255 255 255 255 255 255 255 255 255 255 255 255 255 255 255 255 255 255 255 255 255 255 255 255 255 255 255 255 255 255 255 255 255 255 255 255 255 255 255 255 255 255 255 255 255 255 255 255 255 255 255 255 255 255 255 255 255 255 255 255 255 255 255 255 255 255 255 255 255 255 255 255 255 255 255 255 255 255 255 255 255 255 255 225 210 211 149 8 19 149 8 19 149 8 19 149 8 19 149 8 19 149 8 19 149 8 19 149 8 19 149 8 19 149 8 19 149 8 19 149 8 19 244 239 239 255 255 255 255 255 255 255 255 255 255 255 255 255 255 255 255 255 255 255 255 255 255 255 255 255 255 255 255 255 255 255 255 255 255 255 255 255 255 255 255 255 255 255 255 255 255 255 255 255 255 255 255 255 255 255 255 255 255 255 255 255 255 255 255 255 255 255 255 255 255 255 255 255 255 255 255 255 255 255 255 255 255 255 255 255 255 255 255 255 255 255 255 255 255 255 255 255 255 255 255 255 255 255 255 255 255 255 255 255 255 255 255 255 255 255 255 255 255 255 255 255 255 255 255 255 255 255 255 255 255 255 255 255 255 255 255 255 255 255 255 255 255 255 255 255 255 255 255 255 255 251 249 249 156 63 65 149 8 19 149 8 19 149 8 19 149 8 19 149 8 19 149 8 19 149 8 19 149 8 19 149 8 19 149 8 19 168 102 103 255 255 255 255 255 255 255 255 255 255 255 255 255 255 255 255 255 255 255 255 255 255 255 255 255 255 255 255 255 255 255 255 255 255 255 255 255 255 255 255 255 255 255 255 255 255 255 255 255 255 255 255 255 255 255 255 255 255 255 255 255 255 255 255 255 255 255 255 255 255 255 255 255 255 255 255 255 255 255 255 255 255 255 255 255 255 255 255 255 255 255 255 255 255 255 255 255 255 255 255 255 255 255 255 255 255 255 255 255 255 255 255 255 255 255 255 255 255 255 255 255 255 255 255 255 255 255 255 255 255 255 255 255 255 255 255 255 255 255 255 255 255 255 255 255 255 255 255 255 255 255 255 255 255 255 255 180 131 131 149 8 19 149 8 19 149 8 19 149 8 19 149 8 19 149 8 19 149 8 19 149 8 19 149 8 19 149 8 19 201 171 172 255 255 255 255 255 255 255 255 255 255 255 255 255 255 255 255 255 255 255 255 255 255 255 255 255 255 255 255 255 255 255 255 255 255 255 255 255 255 255 255 255 255 255 255 255 255 255 255 255 255 255 255 255 255 255 255 255 255 255 255 255 255 255 255 255 255 255 255 255 255 255 255 255 255 255 255 255 255 255 255 255 255 255 255 255 255 255 255 255 255 255 255 255 255 255 255 255 255 255 255 255 255 255 255 255 255 255 255 255 255 255 255 255 255 255 255 255 255 255 255 255 255 255 255 255 255 255 255 255 255 255 255 255 255 255 255 255 255 255 255 255 249 247 247 243 237 237 236 227 227 229 217 217 221 205 205 176 121 122 149 8 19 149 8 19 149 8 19 149 8 19 149 8 19 149 8 19 149 8 19 149 8 19 149 8 19 149 8 19 228 215 215 255 255 255 255 255 255 255 255 255 255 255 255 255 255 255 255 255 255 255 255 255 255 255 255 255 255 255 255 255 255 255 255 255 255 255 255 255 255 255 255 255 255 255 255 255 255 255 255 255 255 255 255 255 255 255 255 255 255 255 255 255 255 255 255 255 255 255 255 255 255 255 255 255 255 255 255 255 255 255 255 255 255 255 255 255 255 255 255 255 255 255 255 255 255 255 255 255 255 255 255 255 255 254 254 254 248 245 245 241 235 235 235 225 225 226 213 213 219 201 201 211 188 188 203 174 175 194 159 160 184 139 139 174 116 117 163 87 89 151 37 41 149 8 19 149 8 19 149 8 19 149 8 19 149 8 19 149 8 19 149 8 19 149 8 19 149 8 19 149 8 19 149 8 19 149 8 19 149 8 19 149 8 19 149 8 19 151 32 37 250 248 248 255 255 255 255 255 255 255 255 255 255 255 255 255 255 255 255 255 255 255 255 255 255 255 255 255 255 255 255 255 255 255 255 255 255 255 255 255 255 255 255 255 255 255 255 255 249 246 246 245 240 240 255 255 255 255 255 255 255 255 255 255 255 255 255 255 255 255 255 255 255 255 255 255 255 255 255 255 255 255 255 255 255 255 255 214 193 193 201 171 171 191 153 154 182 134 134 172 111 112 161 80 82 149 8 19 149 8 19 149 8 19 149 8 19 149 8 19 149 8 19 149 8 19 149 8 19 149 8 19 149 8 19 149 8 19 149 8 19 149 8 19 149 8 19 149 8 19 149 8 19 149 8 19 149 8 19 149 8 19 149 8 19 149 8 19 149 8 19 149 8 19 149 8 19 149 8 19 149 8 19 149 8 19 149 8 19 181 132 132 255 255 255 255 255 255 255 255 255 255 255 255 255 255 255 255 255 255 255 255 255 255 255 255 255 255 255 255 255 255 255 255 255 255 255 255 255 255 255 255 255 255 255 255 255 255 255 255 226 213 213 149 8 19 165 94 95 196 161 162 220 203 203 242 236 236 255 255 255 255 255 255 255 255 255 255 255 255 255 255 255 255 255 255 247 244 244 172 112 113 149 8 19 149 8 19 149 8 19 149 8 19 149 8 19 149 8 19 149 8 19 149 8 19 149 8 19 149 8 19 149 8 19 149 8 19 149 8 19 149 8 19 149 8 19 149 8 19 149 8 19 149 8 19 149 8 19 149 8 19 149 8 19 149 8 19 149 8 19 149 8 19 149 8 19 149 8 19 149 8 19 149 8 19 149 8 19 149 8 19 149 8 19 149 8 19 149 8 19 211 187 188 255 255 255 255 255 255 255 255 255 255 255 255 255 255 255 255 255 255 255 255 255 255 255 255 255 255 255 255 255 255 255 255 255 255 255 255 255 255 255 255 255 255 255 255 255 255 255 255 217 198 198 149 8 19 149 8 19 149 8 19 149 8 19 149 8 19 161 82 84 191 152 153 205 179 179 192 154 155 176 121 122 156 63 65 149 8 19 149 8 19 149 8 19 149 8 19 149 8 19 149 8 19 149 8 19 149 8 19 149 8 19 149 8 19 149 8 19 149 8 19 149 8 19 149 8 19 149 8 19 149 8 19 149 8 19 149 8 19 149 8 19 149 8 19 149 8 19 149 8 19 149 8 19 149 8 19 149 8 19 149 8 19 149 8 19 149 8 19 149 8 19 149 8 19 149 8 19 149 8 19 149 8 19 149 8 19 149 8 19 236 228 228 255 255 255 255 255 255 255 255 255 255 255 255 255 255 255 255 255 255 255 255 255 255 255 255 255 255 255 255 255 255 255 255 255 255 255 255 255 255 255 255 255 255 255 255 255 255 255 255 207 181 182 149 8 19 149 8 19 149 8 19 149 8 19 149 8 19 149 8 19 149 8 19 149 8 19 149 8 19 149 8 19 149 8 19 149 8 19 149 8 19 149 8 19 149 8 19 149 8 19 149 8 19 149 8 19 149 8 19 149 8 19 149 8 19 149 8 19 149 8 19 149 8 19 149 8 19 149 8 19 149 8 19 149 8 19 149 8 19 149 8 19 149 8 19 149 8 19 149 8 19 149 8 19 149 8 19 149 8 19 149 8 19 149 8 19 149 8 19 149 8 19 149 8 19 149 8 19 149 8 19 149 8 19 149 8 19 158 70 72 254 254 254 255 255 255 255 255 255 255 255 255 255 255 255 255 255 255 255 255 255 255 255 255 255 255 255 255 255 255 255 255 255 255 255 255 255 255 255 255 255 255 255 255 255 255 255 255 255 255 255 197 164 164 149 8 19 149 8 19 149 8 19 149 8 19 149 8 19 149 8 19 149 8 19 149 8 19 149 8 19 149 8 19 149 8 19 149 8 19 149 8 19 149 8 19 149 8 19 149 8 19 149 8 19 149 8 19 149 8 19 149 8 19 149 8 19 149 8 19 149 8 19 149 8 19 149 8 19 149 8 19 149 8 19 149 8 19 149 8 19 149 8 19 149 8 19 149 8 19 149 8 19 149 8 19 149 8 19 149 8 19 149 8 19 149 8 19 149 8 19 149 8 19 149 8 19 149 8 19 149 8 19 149 8 19 149 8 19 192 154 155 255 255 255 255 255 255 255 255 255 255 255 255 255 255 255 255 255 255 255 255 255 255 255 255 255 255 255 255 255 255 255 255 255 255 255 255 255 255 255 255 255 255 255 255 255 255 255 255 255 255 255 185 142 142 149 8 19 149 8 19 149 8 19 149 8 19 149 8 19 149 8 19 149 8 19 149 8 19 149 8 19 149 8 19 149 8 19 149 8 19 149 8 19 149 8 19 149 8 19 149 8 19 149 8 19 149 8 19 149 8 19 149 8 19 149 8 19 149 8 19 149 8 19 149 8 19 149 8 19 149 8 19 149 8 19 149 8 19 149 8 19 149 8 19 149 8 19 149 8 19 149 8 19 149 8 19 149 8 19 149 8 19 149 8 19 149 8 19 149 8 19 149 8 19 149 8 19 149 8 19 149 8 19 149 8 19 149 8 19 220 202 203 255 255 255 255 255 255 255 255 255 255 255 255 255 255 255 255 255 255 255 255 255 255 255 255 255 255 255 255 255 255 255 255 255 255 255 255 255 255 255 255 255 255 255 255 255 255 255 255 255 255 255 174 116 117 149 8 19 149 8 19 149 8 19 149 8 19 149 8 19 149 8 19 149 8 19 149 8 19 149 8 19 149 8 19 149 8 19 149 8 19 149 8 19 149 8 19 149 8 19 149 8 19 149 8 19 149 8 19 149 8 19 149 8 19 149 8 19 149 8 19 149 8 19 149 8 19 149 8 19 149 8 19 149 8 19 149 8 19 149 8 19 149 8 19 149 8 19 149 8 19 149 8 19 149 8 19 149 8 19 149 8 19 149 8 19 149 8 19 149 8 19 149 8 19 149 8 19 149 8 19 149 8 19 149 8 19 149 8 19 244 239 240 255 255 255 255 255 255 255 255 255 255 255 255 255 255 255 255 255 255 255 255 255 255 255 255 255 255 255 255 255 255 255 255 255 255 255 255 255 255 255 255 255 255 255 255 255 255 255 255 255 255 255 161 82 84 149 8 19 149 8 19 149 8 19 149 8 19 149 8 19 149 8 19 149 8 19 149 8 19 149 8 19 149 8 19 149 8 19 149 8 19 149 8 19 149 8 19 149 8 19 149 8 19 149 8 19 149 8 19 149 8 19 149 8 19 149 8 19 149 8 19 149 8 19 149 8 19 149 8 19 149 8 19 149 8 19 149 8 19 149 8 19 149 8 19 149 8 19 149 8 19 149 8 19 149 8 19 149 8 19 149 8 19 149 8 19 149 8 19 149 8 19 149 8 19 149 8 19 149 8 19 149 8 19 149 8 19 169 106 107 255 255 255 255 255 255 255 255 255 255 255 255 255 255 255 255 255 255 255 255 255 255 255 255 255 255 255 255 255 255 255 255 255 255 255 255 255 255 255 255 255 255 255 255 255 255 255 255 255 255 255 253 252 252 149 8 19 149 8 19 149 8 19 149 8 19 149 8 19 149 8 19 149 8 19 149 8 19 149 8 19 149 8 19 149 8 19 149 8 19 149 8 19 149 8 19 149 8 19 149 8 19 149 8 19 149 8 19 149 8 19 149 8 19 149 8 19 149 8 19 149 8 19 149 8 19 149 8 19 149 8 19 149 8 19 149 8 19 149 8 19 149 8 19 149 8 19 149 8 19 149 8 19 149 8 19 149 8 19 149 8 19 149 8 19 149 8 19 149 8 19 149 8 19 149 8 19 149 8 19 149 8 19 149 8 19 149 8 19 202 172 173 255 255 255 255 255 255 255 255 255 255 255 255 255 255 255 255 255 255 255 255 255 255 255 255 255 255 255 255 255 255 255 255 255 255 255 255 255 255 255 255 255 255 255 255 255 255 255 255 255 255 255 246 241 241 149 8 19 149 8 19 149 8 19 149 8 19 149 8 19 149 8 19 149 8 19 149 8 19 149 8 19 149 8 19 149 8 19 149 8 19 149 8 19 149 8 19 149 8 19 149 8 19 149 8 19 149 8 19 149 8 19 149 8 19 149 8 19 149 8 19 149 8 19 149 8 19 149 8 19 149 8 19 149 8 19 149 8 19 149 8 19 149 8 19 149 8 19 149 8 19 149 8 19 149 8 19 149 8 19 149 8 19 149 8 19 149 8 19 149 8 19 149 8 19 149 8 19 149 8 19 149 8 19 149 8 19 149 8 19 208 183 184 233 222 223 233 222 223 233 222 223 233 222 223 236 228 228 239 231 231 239 231 231 239 231 231 239 231 231 239 231 231 239 231 231 239 231 231 239 231 231 239 231 231 239 231 231 239 231 231 239 231 231 224 209 209 149 8 19 149 8 19 149 8 19 149 8 19 149 8 19 149 8 19 149 8 19 149 8 19 149 8 19 149 8 19 149 8 19 149 8 19 149 8 19 149 8 19 149 8 19 149 8 19 149 8 19 149 8 19 149 8 19 149 8 19 149 8 19 149 8 19 149 8 19 149 8 19 149 8 19 149 8 19 149 8 19 149 8 19 149 8 19 149 8 19 149 8 19 149 8 19 149 8 19 149 8 19 149 8 19 149 8 19 149 8 19 149 8 19 149 8 19 149 8 19 149 8 19 149 8 19 149 8 19 149 8 19 149 8 19 149 8 19 149 8 19 149 8 19 149 8 19 149 8 19 149 8 19 149 8 19 149 8 19 149 8 19 149 8 19 149 8 19 149 8 19 149 8 19 149 8 19 149 8 19 149 8 19 149 8 19 149 8 19 149 8 19 149 8 19 149 8 19 149 8 19 149 8 19 149 8 19 149 8 19 149 8 19 149 8 19 149 8 19 149 8 19 149 8 19 149 8 19 149 8 19 149 8 19 149 8 19 149 8 19 149 8 19 149 8 19 149 8 19 149 8 19 149 8 19 149 8 19 149 8 19 149 8 19 149 8 19 149 8 19 149 8 19 149 8 19 149 8 19 149 8 19 149 8 19 149 8 19 149 8 19 149 8 19 149 8 19 149 8 19 149 8 19 149 8 19 149 8 19 149 8 19 149 8 19 